<svg version="1.1" viewBox="0.0 0.0 600.0 371.0" fill="none" stroke="none" stroke-linecap="square" stroke-miterlimit="10" width="600" height="371" xmlns:xlink="http://www.w3.org/1999/xlink" xmlns="http://www.w3.org/2000/svg"><path fill="#ffffff" fill-opacity="0.0" d="M0 0L600.0 0L600.0 371.0L0 371.0L0 0Z" fill-rule="nonzero"/><clipPath id="id_0"><path d="M45.55 89.78333L581.45 89.78333L581.45 298.45L45.55 298.45L45.55 89.78333Z" clip-rule="nonzero"/></clipPath><path stroke="#4cdc8b" stroke-width="2.0" stroke-linecap="butt" clip-path="url(#id_0)" d="M94.26818 281.0611L142.98636 263.6722L191.70454 246.28334L240.42273 228.89444L289.1409 211.50555L337.8591 194.11667L386.57727 176.72778L435.29544 159.33888L484.01364 141.95L532.7318 124.56111" fill-rule="nonzero"/><path stroke="#00ffff" stroke-width="2.0" stroke-linecap="butt" clip-path="url(#id_0)" d="M94.26818 124.56111L142.98636 141.95L191.70454 159.33888L240.42273 176.72778L289.1409 194.11667L337.8591 211.50555L386.57727 228.89444L435.29544 246.28334L484.01364 263.6722L532.7318 281.0611" fill-rule="nonzero"/><path fill="#000000" fill-opacity="0.0" clip-path="url(#id_0)" d="M97.26818 281.0611C97.26818 282.71796 95.92503 284.0611 94.26818 284.0611C92.61133 284.0611 91.26818 282.71796 91.26818 281.0611C91.26818 279.40427 92.61133 278.0611 94.26818 278.0611C95.92503 278.0611 97.26818 279.40427 97.26818 281.0611Z" fill-rule="nonzero"/><path fill="#000000" fill-opacity="0.0" clip-path="url(#id_0)" d="M145.98636 263.6722C145.98636 265.32907 144.64322 266.6722 142.98636 266.6722C141.32951 266.6722 139.98636 265.32907 139.98636 263.6722C139.98636 262.01538 141.32951 260.6722 142.98636 260.6722C144.64322 260.6722 145.98636 262.01538 145.98636 263.6722Z" fill-rule="nonzero"/><path fill="#000000" fill-opacity="0.0" clip-path="url(#id_0)" d="M194.70454 246.28334C194.70454 247.94019 193.3614 249.28334 191.70454 249.28334C190.04768 249.28334 188.70454 247.94019 188.70454 246.28334C188.70454 244.62648 190.04768 243.28334 191.70454 243.28334C193.3614 243.28334 194.70454 244.62648 194.70454 246.28334Z" fill-rule="nonzero"/><path fill="#000000" fill-opacity="0.0" clip-path="url(#id_0)" d="M243.42273 228.89444C243.42273 230.5513 242.07957 231.89444 240.42273 231.89444C238.76587 231.89444 237.42273 230.5513 237.42273 228.89444C237.42273 227.2376 238.76587 225.89444 240.42273 225.89444C242.07957 225.89444 243.42273 227.2376 243.42273 228.89444Z" fill-rule="nonzero"/><path fill="#000000" fill-opacity="0.0" clip-path="url(#id_0)" d="M292.1409 211.50555C292.1409 213.16241 290.79776 214.50555 289.1409 214.50555C287.48407 214.50555 286.1409 213.16241 286.1409 211.50555C286.1409 209.8487 287.48407 208.50555 289.1409 208.50555C290.79776 208.50555 292.1409 209.8487 292.1409 211.50555Z" fill-rule="nonzero"/><path fill="#000000" fill-opacity="0.0" clip-path="url(#id_0)" d="M340.8591 194.11667C340.8591 195.77351 339.51593 197.11667 337.8591 197.11667C336.20224 197.11667 334.8591 195.77351 334.8591 194.11667C334.8591 192.45981 336.20224 191.11667 337.8591 191.11667C339.51593 191.11667 340.8591 192.45981 340.8591 194.11667Z" fill-rule="nonzero"/><path fill="#000000" fill-opacity="0.0" clip-path="url(#id_0)" d="M389.57727 176.72778C389.57727 178.38463 388.23413 179.72778 386.57727 179.72778C384.9204 179.72778 383.57727 178.38463 383.57727 176.72778C383.57727 175.07092 384.9204 173.72778 386.57727 173.72778C388.23413 173.72778 389.57727 175.07092 389.57727 176.72778Z" fill-rule="nonzero"/><path fill="#000000" fill-opacity="0.0" clip-path="url(#id_0)" d="M438.29544 159.33888C438.29544 160.99574 436.9523 162.33888 435.29544 162.33888C433.6386 162.33888 432.29544 160.99574 432.29544 159.33888C432.29544 157.68204 433.6386 156.33888 435.29544 156.33888C436.9523 156.33888 438.29544 157.68204 438.29544 159.33888Z" fill-rule="nonzero"/><path fill="#000000" fill-opacity="0.0" clip-path="url(#id_0)" d="M487.01364 141.95C487.01364 143.60686 485.6705 144.95 484.01364 144.95C482.35678 144.95 481.01364 143.60686 481.01364 141.95C481.01364 140.29315 482.35678 138.95 484.01364 138.95C485.6705 138.95 487.01364 140.29315 487.01364 141.95Z" fill-rule="nonzero"/><path fill="#000000" fill-opacity="0.0" clip-path="url(#id_0)" d="M535.7318 124.56111C535.7318 126.217964 534.3887 127.56111 532.7318 127.56111C531.07495 127.56111 529.7318 126.217964 529.7318 124.56111C529.7318 122.90426 531.07495 121.56111 532.7318 121.56111C534.3887 121.56111 535.7318 122.90426 535.7318 124.56111Z" fill-rule="nonzero"/><path fill="#000000" fill-opacity="0.0" clip-path="url(#id_0)" d="M97.26818 124.56111C97.26818 126.217964 95.92503 127.56111 94.26818 127.56111C92.61133 127.56111 91.26818 126.217964 91.26818 124.56111C91.26818 122.90426 92.61133 121.56111 94.26818 121.56111C95.92503 121.56111 97.26818 122.90426 97.26818 124.56111Z" fill-rule="nonzero"/><path fill="#000000" fill-opacity="0.0" clip-path="url(#id_0)" d="M145.98636 141.95C145.98636 143.60686 144.64322 144.95 142.98636 144.95C141.32951 144.95 139.98636 143.60686 139.98636 141.95C139.98636 140.29315 141.32951 138.95 142.98636 138.95C144.64322 138.95 145.98636 140.29315 145.98636 141.95Z" fill-rule="nonzero"/><path fill="#000000" fill-opacity="0.0" clip-path="url(#id_0)" d="M194.70454 159.33888C194.70454 160.99574 193.3614 162.33888 191.70454 162.33888C190.04768 162.33888 188.70454 160.99574 188.70454 159.33888C188.70454 157.68204 190.04768 156.33888 191.70454 156.33888C193.3614 156.33888 194.70454 157.68204 194.70454 159.33888Z" fill-rule="nonzero"/><path fill="#000000" fill-opacity="0.0" clip-path="url(#id_0)" d="M243.42273 176.72778C243.42273 178.38463 242.07957 179.72778 240.42273 179.72778C238.76587 179.72778 237.42273 178.38463 237.42273 176.72778C237.42273 175.07092 238.76587 173.72778 240.42273 173.72778C242.07957 173.72778 243.42273 175.07092 243.42273 176.72778Z" fill-rule="nonzero"/><path fill="#000000" fill-opacity="0.0" clip-path="url(#id_0)" d="M292.1409 194.11667C292.1409 195.77351 290.79776 197.11667 289.1409 197.11667C287.48407 197.11667 286.1409 195.77351 286.1409 194.11667C286.1409 192.45981 287.48407 191.11667 289.1409 191.11667C290.79776 191.11667 292.1409 192.45981 292.1409 194.11667Z" fill-rule="nonzero"/><path fill="#000000" fill-opacity="0.0" clip-path="url(#id_0)" d="M340.8591 211.50555C340.8591 213.16241 339.51593 214.50555 337.8591 214.50555C336.20224 214.50555 334.8591 213.16241 334.8591 211.50555C334.8591 209.8487 336.20224 208.50555 337.8591 208.50555C339.51593 208.50555 340.8591 209.8487 340.8591 211.50555Z" fill-rule="nonzero"/><path fill="#000000" fill-opacity="0.0" clip-path="url(#id_0)" d="M389.57727 228.89444C389.57727 230.5513 388.23413 231.89444 386.57727 231.89444C384.9204 231.89444 383.57727 230.5513 383.57727 228.89444C383.57727 227.2376 384.9204 225.89444 386.57727 225.89444C388.23413 225.89444 389.57727 227.2376 389.57727 228.89444Z" fill-rule="nonzero"/><path fill="#000000" fill-opacity="0.0" clip-path="url(#id_0)" d="M438.29544 246.28334C438.29544 247.94019 436.9523 249.28334 435.29544 249.28334C433.6386 249.28334 432.29544 247.94019 432.29544 246.28334C432.29544 244.62648 433.6386 243.28334 435.29544 243.28334C436.9523 243.28334 438.29544 244.62648 438.29544 246.28334Z" fill-rule="nonzero"/><path fill="#000000" fill-opacity="0.0" clip-path="url(#id_0)" d="M487.01364 263.6722C487.01364 265.32907 485.6705 266.6722 484.01364 266.6722C482.35678 266.6722 481.01364 265.32907 481.01364 263.6722C481.01364 262.01538 482.35678 260.6722 484.01364 260.6722C485.6705 260.6722 487.01364 262.01538 487.01364 263.6722Z" fill-rule="nonzero"/><path fill="#000000" fill-opacity="0.0" clip-path="url(#id_0)" d="M535.7318 281.0611C535.7318 282.71796 534.3887 284.0611 532.7318 284.0611C531.07495 284.0611 529.7318 282.71796 529.7318 281.0611C529.7318 279.40427 531.07495 278.0611 532.7318 278.0611C534.3887 278.0611 535.7318 279.40427 535.7318 281.0611Z" fill-rule="nonzero"/><path fill="#ffffff" d="M283.89062 341.84064L281.14062 341.84064L281.14062 349.45L280.03125 349.45L280.03125 341.84064L277.28125 341.84064L277.28125 340.91876L283.89062 340.91876L283.89062 341.84064ZM287.45312 349.575Q286.15625 349.575 285.34375 348.73126Q284.54688 347.8719 284.54688 346.45L284.54688 346.2625Q284.54688 345.3094 284.90625 344.575Q285.26562 343.825 285.90625 343.41876Q286.5625 342.9969 287.3125 342.9969Q288.54688 342.9969 289.23438 343.8094Q289.92188 344.6219 289.92188 346.1375L289.92188 346.59064L285.625 346.59064Q285.65625 347.52814 286.17188 348.10626Q286.70312 348.6844 287.51562 348.6844Q288.07812 348.6844 288.46875 348.45Q288.875 348.21564 289.1875 347.825L289.84375 348.34064Q289.04688 349.575 287.45312 349.575ZM287.3125 343.8875Q286.65625 343.8875 286.20312 344.3719Q285.76562 344.84064 285.67188 345.7L288.84375 345.7L288.84375 345.6219Q288.79688 344.79376 288.39062 344.34064Q288.0 343.8875 287.3125 343.8875ZM292.95312 345.41876L294.35938 343.10626L295.625 343.10626L293.54688 346.2469L295.6875 349.45L294.4375 349.45L292.96875 347.075L291.5 349.45L290.23438 349.45L292.375 346.2469L290.3125 343.10626L291.5625 343.10626L292.95312 345.41876ZM298.29688 341.575L298.29688 343.10626L299.46875 343.10626L299.46875 343.95L298.29688 343.95L298.29688 347.8719Q298.29688 348.2625 298.45312 348.45Q298.60938 348.6375 298.98438 348.6375Q299.17188 348.6375 299.5 348.575L299.5 349.45Q299.07812 349.575 298.67188 349.575Q297.95312 349.575 297.57812 349.1375Q297.20312 348.6844 297.20312 347.8719L297.20312 343.95L296.04688 343.95L296.04688 343.10626L297.20312 343.10626L297.20312 341.575L298.29688 341.575ZM304.51562 347.7625Q304.51562 347.325 304.17188 347.09064Q303.84375 346.84064 303.01562 346.66876Q302.20312 346.4969 301.71875 346.2469Q301.23438 345.9969 301.0 345.66876Q300.78125 345.325 300.78125 344.85626Q300.78125 344.075 301.4375 343.54376Q302.09375 342.9969 303.125 342.9969Q304.20312 342.9969 304.85938 343.5594Q305.53125 344.10626 305.53125 344.96564L304.45312 344.96564Q304.45312 344.52814 304.0625 344.21564Q303.6875 343.8875 303.125 343.8875Q302.53125 343.8875 302.1875 344.15314Q301.85938 344.40314 301.85938 344.8094Q301.85938 345.2 302.17188 345.40314Q302.48438 345.60626 303.29688 345.79376Q304.10938 345.96564 304.60938 346.21564Q305.10938 346.46564 305.34375 346.825Q305.59375 347.1844 305.59375 347.6844Q305.59375 348.54376 304.90625 349.0594Q304.23438 349.575 303.15625 349.575Q302.39062 349.575 301.79688 349.3094Q301.21875 349.02814 300.89062 348.54376Q300.5625 348.0594 300.5625 347.4969L301.64062 347.4969Q301.67188 348.04376 302.07812 348.3719Q302.48438 348.6844 303.15625 348.6844Q303.76562 348.6844 304.14062 348.4344Q304.51562 348.1844 304.51562 347.7625ZM315.17188 346.35626Q315.17188 347.79376 314.51562 348.6844Q313.85938 349.575 312.71875 349.575Q311.5625 349.575 310.90625 348.84064L310.90625 351.8875L309.82812 351.8875L309.82812 343.10626L310.8125 343.10626L310.85938 343.8094Q311.53125 342.9969 312.70312 342.9969Q313.84375 342.9969 314.5 343.85626Q315.17188 344.71564 315.17188 346.2469L315.17188 346.35626ZM314.09375 346.23126Q314.09375 345.15314 313.625 344.54376Q313.17188 343.91876 312.375 343.91876Q311.39062 343.91876 310.90625 344.77814L310.90625 347.8094Q311.39062 348.6844 312.39062 348.6844Q313.17188 348.6844 313.625 348.075Q314.09375 347.45 314.09375 346.23126ZM319.45312 349.575Q318.15625 349.575 317.34375 348.73126Q316.54688 347.8719 316.54688 346.45L316.54688 346.2625Q316.54688 345.3094 316.90625 344.575Q317.26562 343.825 317.90625 343.41876Q318.5625 342.9969 319.3125 342.9969Q320.54688 342.9969 321.23438 343.8094Q321.92188 344.6219 321.92188 346.1375L321.92188 346.59064L317.625 346.59064Q317.65625 347.52814 318.17188 348.10626Q318.70312 348.6844 319.51562 348.6844Q320.07812 348.6844 320.46875 348.45Q320.875 348.21564 321.1875 347.825L321.84375 348.34064Q321.04688 349.575 319.45312 349.575ZM319.3125 343.8875Q318.65625 343.8875 318.20312 344.3719Q317.76562 344.84064 317.67188 345.7L320.84375 345.7L320.84375 345.6219Q320.79688 344.79376 320.39062 344.34064Q320.0 343.8875 319.3125 343.8875ZM325.89062 344.075Q325.64062 344.04376 325.35938 344.04376Q324.28125 344.04376 323.90625 344.95L323.90625 349.45L322.82812 349.45L322.82812 343.10626L323.875 343.10626L323.89062 343.84064Q324.42188 342.9969 325.40625 342.9969Q325.71875 342.9969 325.89062 343.075L325.89062 344.075ZM329.98438 349.45L329.98438 340.91876L332.40625 340.91876Q333.51562 340.91876 334.35938 341.41876Q335.21875 341.90314 335.6875 342.8094Q336.15625 343.71564 336.15625 344.90314L336.15625 345.4344Q336.15625 346.65314 335.6875 347.5594Q335.23438 348.46564 334.35938 348.95Q333.5 349.4344 332.35938 349.45L329.98438 349.45ZM331.10938 341.84064L331.10938 348.52814L332.29688 348.52814Q333.59375 348.52814 334.3125 347.73126Q335.04688 346.91876 335.04688 345.41876L335.04688 344.91876Q335.04688 343.46564 334.35938 342.66876Q333.6875 341.85626 332.42188 341.84064L331.10938 341.84064ZM341.73438 349.45Q341.64062 349.2625 341.57812 348.77814Q340.82812 349.575 339.78125 349.575Q338.84375 349.575 338.23438 349.04376Q337.64062 348.5125 337.64062 347.6844Q337.64062 346.7 338.39062 346.15314Q339.14062 345.60626 340.51562 345.60626L341.5625 345.60626L341.5625 345.10626Q341.5625 344.54376 341.21875 344.21564Q340.89062 343.8719 340.21875 343.8719Q339.64062 343.8719 339.25 344.16876Q338.85938 344.45 338.85938 344.8719L337.76562 344.8719Q337.76562 344.3875 338.09375 343.95Q338.4375 343.5125 339.01562 343.2625Q339.59375 342.9969 340.28125 342.9969Q341.39062 342.9969 342.0 343.54376Q342.625 344.09064 342.65625 345.04376L342.65625 347.96564Q342.65625 348.84064 342.875 349.35626L342.875 349.45L341.73438 349.45ZM339.9375 348.6219Q340.45312 348.6219 340.90625 348.35626Q341.35938 348.09064 341.5625 347.66876L341.5625 346.3719L340.71875 346.3719Q338.71875 346.3719 338.71875 347.54376Q338.71875 348.04376 339.0625 348.34064Q339.40625 348.6219 339.9375 348.6219ZM346.89062 347.85626L348.375 343.10626L349.53125 343.10626L346.98438 350.4344Q346.39062 352.0125 345.10938 352.0125L344.89062 351.9969L344.5 351.91876L344.5 351.04376L344.78125 351.0594Q345.34375 351.0594 345.64062 350.84064Q345.95312 350.6219 346.15625 350.02814L346.39062 349.3719L344.125 343.10626L345.3125 343.10626L346.89062 347.85626Z" fill-rule="nonzero"/><path fill="#ffffff" d="M38.6125 299.3094Q38.6125 301.21564 37.95625 302.15314Q37.315624 303.075 35.925 303.075Q34.565624 303.075 33.909374 302.16876Q33.253124 301.2625 33.221874 299.45L33.221874 298.0125Q33.221874 296.1219 33.8625 295.21564Q34.51875 294.29376 35.909374 294.29376Q37.284374 294.29376 37.940624 295.1844Q38.596874 296.0594 38.6125 297.90314L38.6125 299.3094ZM37.51875 297.825Q37.51875 296.45 37.128124 295.825Q36.753124 295.1844 35.909374 295.1844Q35.08125 295.1844 34.690624 295.825Q34.315624 296.45 34.315624 297.7469L34.315624 299.48126Q34.315624 300.85626 34.70625 301.52814Q35.1125 302.1844 35.925 302.1844Q36.721874 302.1844 37.1125 301.5594Q37.503124 300.9344 37.51875 299.60626L37.51875 297.825Z" fill-rule="nonzero"/><path fill="#ffffff" d="M38.846874 268.1722L33.253124 268.1722L33.253124 267.39096L36.20625 264.1097Q36.8625 263.3597 37.1125 262.9066Q37.3625 262.43784 37.3625 261.93784Q37.3625 261.26596 36.95625 260.8441Q36.565624 260.4066 35.878124 260.4066Q35.08125 260.4066 34.628124 260.87534Q34.175 261.32846 34.175 262.1566L33.096874 262.1566Q33.096874 260.9691 33.846874 260.25034Q34.6125 259.51596 35.878124 259.51596Q37.08125 259.51596 37.76875 260.14096Q38.45625 260.76596 38.45625 261.81284Q38.45625 263.06284 36.846874 264.81284L34.565624 267.2816L38.846874 267.2816L38.846874 268.1722Z" fill-rule="nonzero"/><path fill="#ffffff" d="M37.83125 230.53506L39.01875 230.53506L39.01875 231.41006L37.83125 231.41006L37.83125 233.39444L36.753124 233.39444L36.753124 231.41006L32.8625 231.41006L32.8625 230.76944L36.675 224.86319L37.83125 224.86319L37.83125 230.53506ZM34.096874 230.53506L36.753124 230.53506L36.753124 226.34756L36.6125 226.58194L34.096874 230.53506Z" fill-rule="nonzero"/><path fill="#ffffff" d="M37.51875 190.08542L37.51875 190.99167L37.315624 190.99167Q36.05 191.02292 35.3 191.7573Q34.55 192.47604 34.425 193.78854Q35.1125 193.02292 36.26875 193.02292Q37.378124 193.02292 38.05 193.80417Q38.721874 194.58542 38.721874 195.83542Q38.721874 197.14792 38.003124 197.9448Q37.284374 198.74167 36.065624 198.74167Q34.846874 198.74167 34.08125 197.80417Q33.33125 196.85104 33.33125 195.36667L33.33125 194.96042Q33.33125 192.60104 34.33125 191.35104Q35.33125 190.10104 37.315624 190.08542L37.51875 190.08542ZM36.096874 193.92917Q35.534374 193.92917 35.065624 194.2573Q34.596874 194.58542 34.409374 195.10104L34.409374 195.49167Q34.409374 196.55417 34.878124 197.1948Q35.3625 197.83542 36.065624 197.83542Q36.8 197.83542 37.221874 197.30417Q37.64375 196.7573 37.64375 195.8823Q37.64375 195.0073 37.221874 194.47604Q36.8 193.92917 36.096874 193.92917Z" fill-rule="nonzero"/><path fill="#ffffff" d="M38.440624 157.52638Q38.440624 158.167 38.096874 158.667Q37.753124 159.167 37.190624 159.44826Q37.846874 159.7295 38.2375 160.292Q38.628124 160.83888 38.628124 161.542Q38.628124 162.63576 37.878124 163.30763Q37.14375 163.96388 35.925 163.96388Q34.690624 163.96388 33.940624 163.30763Q33.20625 162.63576 33.20625 161.542Q33.20625 160.83888 33.58125 160.292Q33.95625 159.7295 34.628124 159.44826Q34.065624 159.167 33.7375 158.667Q33.409374 158.167 33.409374 157.52638Q33.409374 156.44826 34.096874 155.82326Q34.784374 155.18263 35.925 155.18263Q37.05 155.18263 37.7375 155.82326Q38.440624 156.44826 38.440624 157.52638ZM37.55 161.51076Q37.55 160.792 37.096874 160.3545Q36.64375 159.90138 35.909374 159.90138Q35.175 159.90138 34.721874 160.3545Q34.284374 160.792 34.284374 161.52638Q34.284374 162.24513 34.721874 162.667Q35.159374 163.07326 35.925 163.07326Q36.675 163.07326 37.1125 162.65138Q37.55 162.2295 37.55 161.51076ZM35.925 156.07326Q35.284374 156.07326 34.878124 156.4795Q34.4875 156.87013 34.4875 157.55763Q34.4875 158.19826 34.878124 158.6045Q35.26875 159.01076 35.909374 159.01076Q36.565624 159.01076 36.95625 158.6045Q37.346874 158.19826 37.346874 157.55763Q37.346874 156.90138 36.940624 156.49513Q36.534374 156.07326 35.925 156.07326Z" fill-rule="nonzero"/><path fill="#ffffff" d="M29.815624 129.06111L28.7375 129.06111L28.7375 121.84236L26.55 122.63924L26.55 121.65486L29.659374 120.48299L29.815624 120.48299L29.815624 129.06111ZM38.6125 125.42049Q38.6125 127.32674 37.95625 128.26424Q37.315624 129.18611 35.925 129.18611Q34.565624 129.18611 33.909374 128.27986Q33.253124 127.37361 33.221874 125.56111L33.221874 124.12361Q33.221874 122.23299 33.8625 121.32674Q34.51875 120.40486 35.909374 120.40486Q37.284374 120.40486 37.940624 121.29549Q38.596874 122.17049 38.6125 124.01424L38.6125 125.42049ZM37.51875 123.93611Q37.51875 122.56111 37.128124 121.93611Q36.753124 121.29549 35.909374 121.29549Q35.08125 121.29549 34.690624 121.93611Q34.315624 122.56111 34.315624 123.85799L34.315624 125.59236Q34.315624 126.96736 34.70625 127.63924Q35.1125 128.29549 35.925 128.29549Q36.721874 128.29549 37.1125 127.67049Q37.503124 127.04549 37.51875 125.71736L37.51875 123.93611Z" fill-rule="nonzero"/><path fill="#ffffff" d="M29.815624 94.28333L28.7375 94.28333L28.7375 87.06458L26.55 87.86146L26.55 86.87708L29.659374 85.70521L29.815624 85.70521L29.815624 94.28333ZM38.846874 94.28333L33.253124 94.28333L33.253124 93.50208L36.20625 90.22083Q36.8625 89.47083 37.1125 89.01771Q37.3625 88.54896 37.3625 88.04896Q37.3625 87.37708 36.95625 86.95521Q36.565624 86.51771 35.878124 86.51771Q35.08125 86.51771 34.628124 86.98646Q34.175 87.43958 34.175 88.26771L33.096874 88.26771Q33.096874 87.08021 33.846874 86.36146Q34.6125 85.62708 35.878124 85.62708Q37.08125 85.62708 37.76875 86.25208Q38.45625 86.87708 38.45625 87.92396Q38.45625 89.17396 36.846874 90.92396L34.565624 93.39271L38.846874 93.39271L38.846874 94.28333Z" fill-rule="nonzero"/><path fill="#ffffff" d="M48.1125 312.8094Q48.1125 314.71564 47.45625 315.65314Q46.815624 316.575 45.425 316.575Q44.065624 316.575 43.409374 315.66876Q42.753124 314.7625 42.721874 312.95L42.721874 311.5125Q42.721874 309.6219 43.3625 308.71564Q44.01875 307.79376 45.409374 307.79376Q46.784374 307.79376 47.440624 308.6844Q48.096874 309.5594 48.1125 311.40314L48.1125 312.8094ZM47.01875 311.325Q47.01875 309.95 46.628124 309.325Q46.253124 308.6844 45.409374 308.6844Q44.58125 308.6844 44.190624 309.325Q43.815624 309.95 43.815624 311.2469L43.815624 312.98126Q43.815624 314.35626 44.20625 315.02814Q44.6125 315.6844 45.425 315.6844Q46.221874 315.6844 46.6125 315.0594Q47.003124 314.4344 47.01875 313.10626L47.01875 311.325Z" fill-rule="nonzero"/><path fill="#ffffff" d="M95.033806 316.45L93.95568 316.45L93.95568 309.23126L91.76818 310.02814L91.76818 309.04376L94.877556 307.8719L95.033806 307.8719L95.033806 316.45Z" fill-rule="nonzero"/><path fill="#ffffff" d="M145.78323 316.45L140.18948 316.45L140.18948 315.66876L143.14261 312.3875Q143.79886 311.6375 144.04886 311.1844Q144.29886 310.71564 144.29886 310.21564Q144.29886 309.54376 143.89261 309.1219Q143.50198 308.6844 142.81448 308.6844Q142.01761 308.6844 141.56448 309.15314Q141.11136 309.60626 141.11136 310.4344L140.03323 310.4344Q140.03323 309.2469 140.78323 308.52814Q141.54886 307.79376 142.81448 307.79376Q144.01761 307.79376 144.70511 308.41876Q145.39261 309.04376 145.39261 310.09064Q145.39261 311.34064 143.78323 313.09064L141.50198 315.5594L145.78323 315.5594L145.78323 316.45Z" fill-rule="nonzero"/><path fill="#ffffff" d="M190.4858 311.65314L191.2983 311.65314Q192.07954 311.6375 192.51704 311.2469Q192.95454 310.85626 192.95454 310.1844Q192.95454 308.6844 191.45454 308.6844Q190.75142 308.6844 190.32954 309.09064Q189.9233 309.4969 189.9233 310.15314L188.82954 310.15314Q188.82954 309.1375 189.56392 308.46564Q190.31392 307.79376 191.45454 307.79376Q192.65767 307.79376 193.34517 308.4344Q194.03267 309.075 194.03267 310.21564Q194.03267 310.77814 193.6733 311.29376Q193.31392 311.8094 192.68892 312.075Q193.39204 312.29376 193.76704 312.8094Q194.15767 313.325 194.15767 314.075Q194.15767 315.21564 193.40767 315.90314Q192.65767 316.575 191.45454 316.575Q190.26704 316.575 189.50142 315.91876Q188.75142 315.2625 188.75142 314.2L189.84517 314.2Q189.84517 314.8719 190.28267 315.27814Q190.72017 315.6844 191.47017 315.6844Q192.25142 315.6844 192.65767 315.27814Q193.07954 314.85626 193.07954 314.09064Q193.07954 313.35626 192.62642 312.96564Q192.1733 312.5594 191.2983 312.54376L190.4858 312.54376L190.4858 311.65314Z" fill-rule="nonzero"/><path fill="#ffffff" d="M242.20398 313.59064L243.39148 313.59064L243.39148 314.46564L242.20398 314.46564L242.20398 316.45L241.12585 316.45L241.12585 314.46564L237.23523 314.46564L237.23523 313.825L241.04773 307.91876L242.20398 307.91876L242.20398 313.59064ZM238.4696 313.59064L241.12585 313.59064L241.12585 309.40314L240.98523 309.6375L238.4696 313.59064Z" fill-rule="nonzero"/><path fill="#ffffff" d="M286.84402 312.16876L287.28152 307.91876L291.65652 307.91876L291.65652 308.91876L288.2034 308.91876L287.93777 311.2469Q288.5784 310.8719 289.37527 310.8719Q290.53152 310.8719 291.21902 311.65314Q291.90652 312.41876 291.90652 313.73126Q291.90652 315.04376 291.18777 315.8094Q290.48465 316.575 289.2034 316.575Q288.0784 316.575 287.35965 315.95Q286.6409 315.3094 286.54715 314.2L287.56277 314.2Q287.67215 314.9344 288.09402 315.3094Q288.5159 315.6844 289.2034 315.6844Q289.9534 315.6844 290.3909 315.16876Q290.8284 314.65314 290.8284 313.7469Q290.8284 312.8875 290.35965 312.3719Q289.8909 311.85626 289.10965 311.85626Q288.40652 311.85626 288.00027 312.15314L287.71902 312.3875L286.84402 312.16876Z" fill-rule="nonzero"/><path fill="#ffffff" d="M339.32785 307.91876L339.32785 308.825L339.12473 308.825Q337.8591 308.85626 337.1091 309.59064Q336.3591 310.3094 336.2341 311.6219Q336.9216 310.85626 338.07785 310.85626Q339.18723 310.85626 339.8591 311.6375Q340.53098 312.41876 340.53098 313.66876Q340.53098 314.98126 339.81223 315.77814Q339.09348 316.575 337.87473 316.575Q336.65598 316.575 335.89035 315.6375Q335.14035 314.6844 335.14035 313.2L335.14035 312.79376Q335.14035 310.4344 336.14035 309.1844Q337.14035 307.9344 339.12473 307.91876L339.32785 307.91876ZM337.90598 311.7625Q337.34348 311.7625 336.87473 312.09064Q336.40598 312.41876 336.21848 312.9344L336.21848 313.325Q336.21848 314.3875 336.68723 315.02814Q337.1716 315.66876 337.87473 315.66876Q338.6091 315.66876 339.03098 315.1375Q339.45285 314.59064 339.45285 313.71564Q339.45285 312.84064 339.03098 312.3094Q338.6091 311.7625 337.90598 311.7625Z" fill-rule="nonzero"/><path fill="#ffffff" d="M389.29602 308.52814L385.76477 316.45L384.62415 316.45L388.13977 308.8094L383.5304 308.8094L383.5304 307.91876L389.29602 307.91876L389.29602 308.52814Z" fill-rule="nonzero"/><path fill="#ffffff" d="M437.68607 310.1375Q437.68607 310.77814 437.34232 311.27814Q436.99857 311.77814 436.43607 312.0594Q437.09232 312.34064 437.48294 312.90314Q437.87357 313.45 437.87357 314.15314Q437.87357 315.2469 437.12357 315.91876Q436.3892 316.575 435.17044 316.575Q433.93607 316.575 433.18607 315.91876Q432.4517 315.2469 432.4517 314.15314Q432.4517 313.45 432.8267 312.90314Q433.2017 312.34064 433.87357 312.0594Q433.31107 311.77814 432.98294 311.27814Q432.65482 310.77814 432.65482 310.1375Q432.65482 309.0594 433.34232 308.4344Q434.02982 307.79376 435.17044 307.79376Q436.29544 307.79376 436.98294 308.4344Q437.68607 309.0594 437.68607 310.1375ZM436.79544 314.1219Q436.79544 313.40314 436.34232 312.96564Q435.8892 312.5125 435.15482 312.5125Q434.42044 312.5125 433.96732 312.96564Q433.52982 313.40314 433.52982 314.1375Q433.52982 314.85626 433.96732 315.27814Q434.40482 315.6844 435.17044 315.6844Q435.92044 315.6844 436.35794 315.2625Q436.79544 314.84064 436.79544 314.1219ZM435.17044 308.6844Q434.52982 308.6844 434.12357 309.09064Q433.73294 309.48126 433.73294 310.16876Q433.73294 310.8094 434.12357 311.21564Q434.5142 311.6219 435.15482 311.6219Q435.81107 311.6219 436.2017 311.21564Q436.59232 310.8094 436.59232 310.16876Q436.59232 309.5125 436.18607 309.10626Q435.77982 308.6844 435.17044 308.6844Z" fill-rule="nonzero"/><path fill="#ffffff" d="M485.37302 312.7Q485.0449 313.10626 484.56052 313.35626Q484.09177 313.59064 483.52927 313.59064Q482.7949 313.59064 482.24802 313.23126Q481.70114 312.8719 481.40427 312.21564Q481.1074 311.54376 481.1074 310.7469Q481.1074 309.90314 481.4199 309.21564Q481.74802 308.52814 482.34177 308.16876Q482.95114 307.79376 483.74802 307.79376Q485.01364 307.79376 485.7324 308.7469Q486.46677 309.7 486.46677 311.325L486.46677 311.6375Q486.46677 314.1375 485.4824 315.27814Q484.49802 316.41876 482.51364 316.45L482.2949 316.45L482.2949 315.54376L482.52927 315.54376Q483.87302 315.5125 484.59177 314.84064Q485.31052 314.16876 485.37302 312.7ZM483.70114 312.7Q484.24802 312.7 484.70114 312.3719Q485.1699 312.02814 485.38864 311.54376L485.38864 311.10626Q485.38864 310.04376 484.9199 309.3719Q484.45114 308.7 483.74802 308.7Q483.02927 308.7 482.59177 309.2469Q482.1699 309.79376 482.1699 310.7Q482.1699 311.575 482.57614 312.1375Q482.99802 312.7 483.70114 312.7Z" fill-rule="nonzero"/><path fill="#ffffff" d="M529.99744 316.45L528.9193 316.45L528.9193 309.23126L526.7318 310.02814L526.7318 309.04376L529.8412 307.8719L529.99744 307.8719L529.99744 316.45ZM538.7943 312.8094Q538.7943 314.71564 538.13806 315.65314Q537.49744 316.575 536.1068 316.575Q534.74744 316.575 534.0912 315.66876Q533.43494 314.7625 533.4037 312.95L533.4037 311.5125Q533.4037 309.6219 534.0443 308.71564Q534.70056 307.79376 536.0912 307.79376Q537.4662 307.79376 538.12244 308.6844Q538.7787 309.5594 538.7943 311.40314L538.7943 312.8094ZM537.70056 311.325Q537.70056 309.95 537.30994 309.325Q536.93494 308.6844 536.0912 308.6844Q535.26306 308.6844 534.87244 309.325Q534.49744 309.95 534.49744 311.2469L534.49744 312.98126Q534.49744 314.35626 534.88806 315.02814Q535.2943 315.6844 536.1068 315.6844Q536.9037 315.6844 537.2943 315.0594Q537.68494 314.4344 537.70056 313.10626L537.70056 311.325Z" fill-rule="nonzero"/><path fill="#ffffff" d="M578.71564 316.45L577.6375 316.45L577.6375 309.23126L575.45 310.02814L575.45 309.04376L578.5594 307.8719L578.71564 307.8719L578.71564 316.45ZM585.71564 316.45L584.6375 316.45L584.6375 309.23126L582.45 310.02814L582.45 309.04376L585.5594 307.8719L585.71564 307.8719L585.71564 316.45Z" fill-rule="nonzero"/><path stroke="#4cdc8b" stroke-width="4.0" stroke-linecap="butt" d="M200.5 62.416668L212.5 62.416668" fill-rule="nonzero"/><path fill="#ffffff" d="M226.20312 64.68229L222.625 64.68229L221.82812 66.916664L220.67188 66.916664L223.92188 58.385414L224.90625 58.385414L228.17188 66.916664L227.01562 66.916664L226.20312 64.68229ZM222.96875 63.760414L225.875 63.760414L224.42188 59.77604L222.96875 63.760414ZM230.34375 60.572914L230.375 61.36979Q231.10938 60.46354 232.28125 60.46354Q234.29688 60.46354 234.3125 62.729164L234.3125 66.916664L233.21875 66.916664L233.21875 62.71354Q233.21875 62.041664 232.90625 61.71354Q232.60938 61.385414 231.95312 61.385414Q231.42188 61.385414 231.01562 61.666664Q230.625 61.947914 230.40625 62.40104L230.40625 66.916664L229.32812 66.916664L229.32812 60.572914L230.34375 60.572914ZM237.34375 60.572914L237.375 61.36979Q238.10938 60.46354 239.28125 60.46354Q241.29688 60.46354 241.3125 62.729164L241.3125 66.916664L240.21875 66.916664L240.21875 62.71354Q240.21875 62.041664 239.90625 61.71354Q239.60938 61.385414 238.95312 61.385414Q238.42188 61.385414 238.01562 61.666664Q237.625 61.947914 237.40625 62.40104L237.40625 66.916664L236.32812 66.916664L236.32812 60.572914L237.34375 60.572914ZM243.03125 63.68229Q243.03125 62.760414 243.39062 62.010414Q243.76562 61.260414 244.42188 60.86979Q245.07812 60.46354 245.90625 60.46354Q247.20312 60.46354 248.0 61.354164Q248.8125 62.24479 248.8125 63.74479L248.8125 63.822914Q248.8125 64.74479 248.45312 65.479164Q248.09375 66.21354 247.4375 66.635414Q246.78125 67.041664 245.92188 67.041664Q244.64062 67.041664 243.82812 66.15104Q243.03125 65.24479 243.03125 63.760414L243.03125 63.68229ZM244.125 63.822914Q244.125 64.86979 244.60938 65.510414Q245.10938 66.15104 245.92188 66.15104Q246.75 66.15104 247.23438 65.510414Q247.71875 64.854164 247.71875 63.68229Q247.71875 62.65104 247.21875 62.010414Q246.73438 61.354164 245.90625 61.354164Q245.10938 61.354164 244.60938 61.99479Q244.125 62.61979 244.125 63.822914ZM252.39062 65.322914L253.875 60.572914L255.03125 60.572914L252.48438 67.90104Q251.89062 69.479164 250.60938 69.479164L250.39062 69.46354L250.0 69.385414L250.0 68.510414L250.28125 68.52604Q250.84375 68.52604 251.14062 68.30729Q251.45312 68.08854 251.65625 67.49479L251.89062 66.83854L249.625 60.572914L250.8125 60.572914L252.39062 65.322914ZM257.5 66.916664L256.42188 66.916664L256.42188 60.572914L257.5 60.572914L257.5 66.916664ZM256.32812 58.90104Q256.32812 58.635414 256.48438 58.447914Q256.65625 58.260414 256.96875 58.260414Q257.28125 58.260414 257.4375 58.447914Q257.60938 58.635414 257.60938 58.90104Q257.60938 59.15104 257.4375 59.33854Q257.28125 59.510414 256.96875 59.510414Q256.65625 59.510414 256.48438 59.33854Q256.32812 59.15104 256.32812 58.90104ZM260.34375 60.572914L260.375 61.36979Q261.10938 60.46354 262.28125 60.46354Q264.29688 60.46354 264.3125 62.729164L264.3125 66.916664L263.21875 66.916664L263.21875 62.71354Q263.21875 62.041664 262.90625 61.71354Q262.60938 61.385414 261.95312 61.385414Q261.42188 61.385414 261.01562 61.666664Q260.625 61.947914 260.40625 62.40104L260.40625 66.916664L259.32812 66.916664L259.32812 60.572914L260.34375 60.572914ZM266.0625 63.697914Q266.0625 62.21354 266.75 61.33854Q267.4375 60.46354 268.5625 60.46354Q269.71875 60.46354 270.375 61.27604L270.42188 60.572914L271.42188 60.572914L271.42188 66.760414Q271.42188 67.99479 270.6875 68.697914Q269.95312 69.416664 268.73438 69.416664Q268.04688 69.416664 267.39062 69.11979Q266.73438 68.822914 266.39062 68.322914L266.95312 67.666664Q267.64062 68.52604 268.65625 68.52604Q269.4375 68.52604 269.875 68.072914Q270.32812 67.635414 270.32812 66.822914L270.32812 66.27604Q269.67188 67.041664 268.54688 67.041664Q267.4375 67.041664 266.75 66.15104Q266.0625 65.24479 266.0625 63.697914ZM267.15625 63.822914Q267.15625 64.885414 267.59375 65.510414Q268.03125 66.11979 268.82812 66.11979Q269.84375 66.11979 270.32812 65.18229L270.32812 62.291664Q269.82812 61.385414 268.82812 61.385414Q268.04688 61.385414 267.59375 61.99479Q267.15625 62.604164 267.15625 63.822914ZM274.34375 60.572914L274.375 61.36979Q275.10938 60.46354 276.28125 60.46354Q278.29688 60.46354 278.3125 62.729164L278.3125 66.916664L277.21875 66.916664L277.21875 62.71354Q277.21875 62.041664 276.90625 61.71354Q276.60938 61.385414 275.95312 61.385414Q275.42188 61.385414 275.01562 61.666664Q274.625 61.947914 274.40625 62.40104L274.40625 66.916664L273.32812 66.916664L273.32812 60.572914L274.34375 60.572914ZM282.95312 67.041664Q281.65625 67.041664 280.84375 66.197914Q280.04688 65.33854 280.04688 63.916664L280.04688 63.729164Q280.04688 62.77604 280.40625 62.041664Q280.76562 61.291664 281.40625 60.885414Q282.0625 60.46354 282.8125 60.46354Q284.04688 60.46354 284.73438 61.27604Q285.42188 62.08854 285.42188 63.604164L285.42188 64.05729L281.125 64.05729Q281.15625 64.99479 281.67188 65.572914Q282.20312 66.15104 283.01562 66.15104Q283.57812 66.15104 283.96875 65.916664Q284.375 65.68229 284.6875 65.291664L285.34375 65.80729Q284.54688 67.041664 282.95312 67.041664ZM282.8125 61.354164Q282.15625 61.354164 281.70312 61.83854Q281.26562 62.30729 281.17188 63.166664L284.34375 63.166664L284.34375 63.08854Q284.29688 62.260414 283.89062 61.80729Q283.5 61.354164 282.8125 61.354164ZM290.01562 65.229164Q290.01562 64.791664 289.67188 64.55729Q289.34375 64.30729 288.51562 64.135414Q287.70312 63.96354 287.21875 63.71354Q286.73438 63.46354 286.5 63.135414Q286.28125 62.791664 286.28125 62.322914Q286.28125 61.541664 286.9375 61.010414Q287.59375 60.46354 288.625 60.46354Q289.70312 60.46354 290.35938 61.02604Q291.03125 61.572914 291.03125 62.43229L289.95312 62.43229Q289.95312 61.99479 289.5625 61.68229Q289.1875 61.354164 288.625 61.354164Q288.03125 61.354164 287.6875 61.61979Q287.35938 61.86979 287.35938 62.27604Q287.35938 62.666664 287.67188 62.86979Q287.98438 63.072914 288.79688 63.260414Q289.60938 63.43229 290.10938 63.68229Q290.60938 63.93229 290.84375 64.291664Q291.09375 64.65104 291.09375 65.15104Q291.09375 66.010414 290.40625 66.52604Q289.73438 67.041664 288.65625 67.041664Q287.89062 67.041664 287.29688 66.77604Q286.71875 66.49479 286.39062 66.010414Q286.0625 65.52604 286.0625 64.96354L287.14062 64.96354Q287.17188 65.510414 287.57812 65.83854Q287.98438 66.15104 288.65625 66.15104Q289.26562 66.15104 289.64062 65.90104Q290.01562 65.65104 290.01562 65.229164ZM296.01562 65.229164Q296.01562 64.791664 295.67188 64.55729Q295.34375 64.30729 294.51562 64.135414Q293.70312 63.96354 293.21875 63.71354Q292.73438 63.46354 292.5 63.135414Q292.28125 62.791664 292.28125 62.322914Q292.28125 61.541664 292.9375 61.010414Q293.59375 60.46354 294.625 60.46354Q295.70312 60.46354 296.35938 61.02604Q297.03125 61.572914 297.03125 62.43229L295.95312 62.43229Q295.95312 61.99479 295.5625 61.68229Q295.1875 61.354164 294.625 61.354164Q294.03125 61.354164 293.6875 61.61979Q293.35938 61.86979 293.35938 62.27604Q293.35938 62.666664 293.67188 62.86979Q293.98438 63.072914 294.79688 63.260414Q295.60938 63.43229 296.10938 63.68229Q296.60938 63.93229 296.84375 64.291664Q297.09375 64.65104 297.09375 65.15104Q297.09375 66.010414 296.40625 66.52604Q295.73438 67.041664 294.65625 67.041664Q293.89062 67.041664 293.29688 66.77604Q292.71875 66.49479 292.39062 66.010414Q292.0625 65.52604 292.0625 64.96354L293.14062 64.96354Q293.17188 65.510414 293.57812 65.83854Q293.98438 66.15104 294.65625 66.15104Q295.26562 66.15104 295.64062 65.90104Q296.01562 65.65104 296.01562 65.229164Z" fill-rule="nonzero"/><path stroke="#00ffff" stroke-width="4.0" stroke-linecap="butt" d="M313.5 62.416668L325.5 62.416668" fill-rule="nonzero"/><path fill="#ffffff" d="M340.5 58.385414L340.5 64.18229Q340.48438 65.385414 339.73438 66.166664Q338.98438 66.93229 337.70312 67.02604L337.39062 67.041664Q336.0 67.041664 335.15625 66.291664Q334.32812 65.52604 334.32812 64.197914L334.32812 58.385414L335.4375 58.385414L335.4375 64.166664Q335.4375 65.08854 335.9375 65.604164Q336.45312 66.11979 337.39062 66.11979Q338.35938 66.11979 338.85938 65.604164Q339.35938 65.08854 339.35938 64.166664L339.35938 58.385414L340.5 58.385414ZM346.01562 65.229164Q346.01562 64.791664 345.67188 64.55729Q345.34375 64.30729 344.51562 64.135414Q343.70312 63.96354 343.21875 63.71354Q342.73438 63.46354 342.5 63.135414Q342.28125 62.791664 342.28125 62.322914Q342.28125 61.541664 342.9375 61.010414Q343.59375 60.46354 344.625 60.46354Q345.70312 60.46354 346.35938 61.02604Q347.03125 61.572914 347.03125 62.43229L345.95312 62.43229Q345.95312 61.99479 345.5625 61.68229Q345.1875 61.354164 344.625 61.354164Q344.03125 61.354164 343.6875 61.61979Q343.35938 61.86979 343.35938 62.27604Q343.35938 62.666664 343.67188 62.86979Q343.98438 63.072914 344.79688 63.260414Q345.60938 63.43229 346.10938 63.68229Q346.60938 63.93229 346.84375 64.291664Q347.09375 64.65104 347.09375 65.15104Q347.09375 66.010414 346.40625 66.52604Q345.73438 67.041664 344.65625 67.041664Q343.89062 67.041664 343.29688 66.77604Q342.71875 66.49479 342.39062 66.010414Q342.0625 65.52604 342.0625 64.96354L343.14062 64.96354Q343.17188 65.510414 343.57812 65.83854Q343.98438 66.15104 344.65625 66.15104Q345.26562 66.15104 345.64062 65.90104Q346.01562 65.65104 346.01562 65.229164ZM350.95312 67.041664Q349.65625 67.041664 348.84375 66.197914Q348.04688 65.33854 348.04688 63.916664L348.04688 63.729164Q348.04688 62.77604 348.40625 62.041664Q348.76562 61.291664 349.40625 60.885414Q350.0625 60.46354 350.8125 60.46354Q352.04688 60.46354 352.73438 61.27604Q353.42188 62.08854 353.42188 63.604164L353.42188 64.05729L349.125 64.05729Q349.15625 64.99479 349.67188 65.572914Q350.20312 66.15104 351.01562 66.15104Q351.57812 66.15104 351.96875 65.916664Q352.375 65.68229 352.6875 65.291664L353.34375 65.80729Q352.54688 67.041664 350.95312 67.041664ZM350.8125 61.354164Q350.15625 61.354164 349.70312 61.83854Q349.26562 62.30729 349.17188 63.166664L352.34375 63.166664L352.34375 63.08854Q352.29688 62.260414 351.89062 61.80729Q351.5 61.354164 350.8125 61.354164ZM355.5 66.916664L354.42188 66.916664L354.42188 57.916664L355.5 57.916664L355.5 66.916664ZM359.95312 67.041664Q358.65625 67.041664 357.84375 66.197914Q357.04688 65.33854 357.04688 63.916664L357.04688 63.729164Q357.04688 62.77604 357.40625 62.041664Q357.76562 61.291664 358.40625 60.885414Q359.0625 60.46354 359.8125 60.46354Q361.04688 60.46354 361.73438 61.27604Q362.42188 62.08854 362.42188 63.604164L362.42188 64.05729L358.125 64.05729Q358.15625 64.99479 358.67188 65.572914Q359.20312 66.15104 360.01562 66.15104Q360.57812 66.15104 360.96875 65.916664Q361.375 65.68229 361.6875 65.291664L362.34375 65.80729Q361.54688 67.041664 359.95312 67.041664ZM359.8125 61.354164Q359.15625 61.354164 358.70312 61.83854Q358.26562 62.30729 358.17188 63.166664L361.34375 63.166664L361.34375 63.08854Q361.29688 62.260414 360.89062 61.80729Q360.5 61.354164 359.8125 61.354164ZM367.01562 65.229164Q367.01562 64.791664 366.67188 64.55729Q366.34375 64.30729 365.51562 64.135414Q364.70312 63.96354 364.21875 63.71354Q363.73438 63.46354 363.5 63.135414Q363.28125 62.791664 363.28125 62.322914Q363.28125 61.541664 363.9375 61.010414Q364.59375 60.46354 365.625 60.46354Q366.70312 60.46354 367.35938 61.02604Q368.03125 61.572914 368.03125 62.43229L366.95312 62.43229Q366.95312 61.99479 366.5625 61.68229Q366.1875 61.354164 365.625 61.354164Q365.03125 61.354164 364.6875 61.61979Q364.35938 61.86979 364.35938 62.27604Q364.35938 62.666664 364.67188 62.86979Q364.98438 63.072914 365.79688 63.260414Q366.60938 63.43229 367.10938 63.68229Q367.60938 63.93229 367.84375 64.291664Q368.09375 64.65104 368.09375 65.15104Q368.09375 66.010414 367.40625 66.52604Q366.73438 67.041664 365.65625 67.041664Q364.89062 67.041664 364.29688 66.77604Q363.71875 66.49479 363.39062 66.010414Q363.0625 65.52604 363.0625 64.96354L364.14062 64.96354Q364.17188 65.510414 364.57812 65.83854Q364.98438 66.15104 365.65625 66.15104Q366.26562 66.15104 366.64062 65.90104Q367.01562 65.65104 367.01562 65.229164ZM373.01562 65.229164Q373.01562 64.791664 372.67188 64.55729Q372.34375 64.30729 371.51562 64.135414Q370.70312 63.96354 370.21875 63.71354Q369.73438 63.46354 369.5 63.135414Q369.28125 62.791664 369.28125 62.322914Q369.28125 61.541664 369.9375 61.010414Q370.59375 60.46354 371.625 60.46354Q372.70312 60.46354 373.35938 61.02604Q374.03125 61.572914 374.03125 62.43229L372.95312 62.43229Q372.95312 61.99479 372.5625 61.68229Q372.1875 61.354164 371.625 61.354164Q371.03125 61.354164 370.6875 61.61979Q370.35938 61.86979 370.35938 62.27604Q370.35938 62.666664 370.67188 62.86979Q370.98438 63.072914 371.79688 63.260414Q372.60938 63.43229 373.10938 63.68229Q373.60938 63.93229 373.84375 64.291664Q374.09375 64.65104 374.09375 65.15104Q374.09375 66.010414 373.40625 66.52604Q372.73438 67.041664 371.65625 67.041664Q370.89062 67.041664 370.29688 66.77604Q369.71875 66.49479 369.39062 66.010414Q369.0625 65.52604 369.0625 64.96354L370.14062 64.96354Q370.17188 65.510414 370.57812 65.83854Q370.98438 66.15104 371.65625 66.15104Q372.26562 66.15104 372.64062 65.90104Q373.01562 65.65104 373.01562 65.229164ZM376.34375 60.572914L376.375 61.36979Q377.10938 60.46354 378.28125 60.46354Q380.29688 60.46354 380.3125 62.729164L380.3125 66.916664L379.21875 66.916664L379.21875 62.71354Q379.21875 62.041664 378.90625 61.71354Q378.60938 61.385414 377.95312 61.385414Q377.42188 61.385414 377.01562 61.666664Q376.625 61.947914 376.40625 62.40104L376.40625 66.916664L375.32812 66.916664L375.32812 60.572914L376.34375 60.572914ZM384.95312 67.041664Q383.65625 67.041664 382.84375 66.197914Q382.04688 65.33854 382.04688 63.916664L382.04688 63.729164Q382.04688 62.77604 382.40625 62.041664Q382.76562 61.291664 383.40625 60.885414Q384.0625 60.46354 384.8125 60.46354Q386.04688 60.46354 386.73438 61.27604Q387.42188 62.08854 387.42188 63.604164L387.42188 64.05729L383.125 64.05729Q383.15625 64.99479 383.67188 65.572914Q384.20312 66.15104 385.01562 66.15104Q385.57812 66.15104 385.96875 65.916664Q386.375 65.68229 386.6875 65.291664L387.34375 65.80729Q386.54688 67.041664 384.95312 67.041664ZM384.8125 61.354164Q384.15625 61.354164 383.70312 61.83854Q383.26562 62.30729 383.17188 63.166664L386.34375 63.166664L386.34375 63.08854Q386.29688 62.260414 385.89062 61.80729Q385.5 61.354164 384.8125 61.354164ZM392.01562 65.229164Q392.01562 64.791664 391.67188 64.55729Q391.34375 64.30729 390.51562 64.135414Q389.70312 63.96354 389.21875 63.71354Q388.73438 63.46354 388.5 63.135414Q388.28125 62.791664 388.28125 62.322914Q388.28125 61.541664 388.9375 61.010414Q389.59375 60.46354 390.625 60.46354Q391.70312 60.46354 392.35938 61.02604Q393.03125 61.572914 393.03125 62.43229L391.95312 62.43229Q391.95312 61.99479 391.5625 61.68229Q391.1875 61.354164 390.625 61.354164Q390.03125 61.354164 389.6875 61.61979Q389.35938 61.86979 389.35938 62.27604Q389.35938 62.666664 389.67188 62.86979Q389.98438 63.072914 390.79688 63.260414Q391.60938 63.43229 392.10938 63.68229Q392.60938 63.93229 392.84375 64.291664Q393.09375 64.65104 393.09375 65.15104Q393.09375 66.010414 392.40625 66.52604Q391.73438 67.041664 390.65625 67.041664Q389.89062 67.041664 389.29688 66.77604Q388.71875 66.49479 388.39062 66.010414Q388.0625 65.52604 388.0625 64.96354L389.14062 64.96354Q389.17188 65.510414 389.57812 65.83854Q389.98438 66.15104 390.65625 66.15104Q391.26562 66.15104 391.64062 65.90104Q392.01562 65.65104 392.01562 65.229164ZM398.01562 65.229164Q398.01562 64.791664 397.67188 64.55729Q397.34375 64.30729 396.51562 64.135414Q395.70312 63.96354 395.21875 63.71354Q394.73438 63.46354 394.5 63.135414Q394.28125 62.791664 394.28125 62.322914Q394.28125 61.541664 394.9375 61.010414Q395.59375 60.46354 396.625 60.46354Q397.70312 60.46354 398.35938 61.02604Q399.03125 61.572914 399.03125 62.43229L397.95312 62.43229Q397.95312 61.99479 397.5625 61.68229Q397.1875 61.354164 396.625 61.354164Q396.03125 61.354164 395.6875 61.61979Q395.35938 61.86979 395.35938 62.27604Q395.35938 62.666664 395.67188 62.86979Q395.98438 63.072914 396.79688 63.260414Q397.60938 63.43229 398.10938 63.68229Q398.60938 63.93229 398.84375 64.291664Q399.09375 64.65104 399.09375 65.15104Q399.09375 66.010414 398.40625 66.52604Q397.73438 67.041664 396.65625 67.041664Q395.89062 67.041664 395.29688 66.77604Q394.71875 66.49479 394.39062 66.010414Q394.0625 65.52604 394.0625 64.96354L395.14062 64.96354Q395.17188 65.510414 395.57812 65.83854Q395.98438 66.15104 396.65625 66.15104Q397.26562 66.15104 397.64062 65.90104Q398.01562 65.65104 398.01562 65.229164Z" fill-rule="nonzero"/><path fill="#ffffff" d="M30.20625 23.33125L30.20625 33.003124Q30.20625 35.003124 28.940624 36.284374Q27.690624 37.565624 25.55 37.721874L25.05 37.753124Q22.70625 37.753124 21.315624 36.4875Q19.940624 35.221874 19.925 33.01875L19.925 23.33125L21.76875 23.33125L21.76875 32.95625Q21.76875 34.503124 22.6125 35.3625Q23.471874 36.20625 25.05 36.20625Q26.64375 36.20625 27.4875 35.3625Q28.33125 34.51875 28.33125 32.971874L28.33125 23.33125L30.20625 23.33125ZM39.065624 34.753124Q39.065624 34.01875 38.51875 33.6125Q37.971874 33.20625 36.596874 32.909374Q35.221874 32.6125 34.409374 32.20625Q33.6125 31.8 33.221874 31.2375Q32.846874 30.659374 32.846874 29.878124Q32.846874 28.58125 33.940624 27.690624Q35.034374 26.784374 36.753124 26.784374Q38.55 26.784374 39.659374 27.721874Q40.784374 28.64375 40.784374 30.08125L38.95625 30.08125Q38.95625 29.346874 38.33125 28.815624Q37.70625 28.26875 36.753124 28.26875Q35.753124 28.26875 35.190624 28.70625Q34.64375 29.128124 34.64375 29.83125Q34.64375 30.471874 35.159374 30.815624Q35.675 31.14375 37.034374 31.45625Q38.39375 31.753124 39.221874 32.175Q40.065624 32.58125 40.471874 33.175Q40.878124 33.76875 40.878124 34.6125Q40.878124 36.034374 39.7375 36.89375Q38.6125 37.753124 36.8 37.753124Q35.534374 37.753124 34.55 37.3Q33.58125 36.846874 33.01875 36.05Q32.471874 35.2375 32.471874 34.3L34.284374 34.3Q34.33125 35.20625 35.003124 35.7375Q35.690624 36.26875 36.8 36.26875Q37.83125 36.26875 38.440624 35.8625Q39.065624 35.440624 39.065624 34.753124ZM49.440624 37.55Q49.284374 37.2375 49.190624 36.440624Q47.925 37.753124 46.175 37.753124Q44.6125 37.753124 43.6125 36.8625Q42.6125 35.971874 42.6125 34.6125Q42.6125 32.971874 43.8625 32.065624Q45.128124 31.14375 47.39375 31.14375L49.159374 31.14375L49.159374 30.315624Q49.159374 29.3625 48.58125 28.8Q48.01875 28.2375 46.925 28.2375Q45.95625 28.2375 45.3 28.7375Q44.64375 29.221874 44.64375 29.909374L42.83125 29.909374Q42.83125 29.128124 43.39375 28.39375Q43.95625 27.64375 44.909374 27.221874Q45.878124 26.784374 47.034374 26.784374Q48.8625 26.784374 49.89375 27.70625Q50.925 28.6125 50.971874 30.221874L50.971874 35.08125Q50.971874 36.534374 51.33125 37.39375L51.33125 37.55L49.440624 37.55ZM46.440624 36.175Q47.3 36.175 48.05 35.7375Q48.815624 35.3 49.159374 34.596874L49.159374 32.425L47.7375 32.425Q44.425 32.425 44.425 34.3625Q44.425 35.221874 44.9875 35.70625Q45.55 36.175 46.440624 36.175ZM62.8625 32.378124Q62.8625 34.8 61.753124 36.284374Q60.64375 37.753124 58.76875 37.753124Q56.753124 37.753124 55.659374 36.33125L55.58125 37.55L53.925 37.55L53.925 22.55L55.721874 22.55L55.721874 28.14375Q56.815624 26.784374 58.7375 26.784374Q60.659374 26.784374 61.753124 28.2375Q62.8625 29.690624 62.8625 32.221874L62.8625 32.378124ZM61.05 32.175Q61.05 30.33125 60.33125 29.33125Q59.628124 28.315624 58.3 28.315624Q56.503124 28.315624 55.721874 29.9875L55.721874 34.55Q56.55 36.20625 58.315624 36.20625Q59.6125 36.20625 60.33125 35.20625Q61.05 34.20625 61.05 32.175ZM66.87813 37.55L65.08125 37.55L65.08125 26.9875L66.87813 26.9875L66.87813 37.55ZM64.925 24.175Q64.925 23.7375 65.19063 23.440624Q65.47188 23.128124 65.9875 23.128124Q66.51875 23.128124 66.78438 23.440624Q67.06563 23.7375 67.06563 24.175Q67.06563 24.6125 66.78438 24.909374Q66.51875 25.20625 65.9875 25.20625Q65.47188 25.20625 65.19063 24.909374Q64.925 24.6125 64.925 24.175ZM71.87813 37.55L70.08125 37.55L70.08125 22.55L71.87813 22.55L71.87813 37.55ZM76.87813 37.55L75.08125 37.55L75.08125 26.9875L76.87813 26.9875L76.87813 37.55ZM74.925 24.175Q74.925 23.7375 75.19063 23.440624Q75.47188 23.128124 75.9875 23.128124Q76.51875 23.128124 76.78438 23.440624Q77.06563 23.7375 77.06563 24.175Q77.06563 24.6125 76.78438 24.909374Q76.51875 25.20625 75.9875 25.20625Q75.47188 25.20625 75.19063 24.909374Q74.925 24.6125 74.925 24.175ZM82.3625 24.425L82.3625 26.9875L84.34688 26.9875L84.34688 28.378124L82.3625 28.378124L82.3625 34.925Q82.3625 35.565624 82.62813 35.89375Q82.89375 36.20625 83.53438 36.20625Q83.84688 36.20625 84.39375 36.08125L84.39375 37.55Q83.675 37.753124 83.00313 37.753124Q81.8 37.753124 81.175 37.01875Q80.56563 36.284374 80.56563 34.925L80.56563 28.378124L78.64375 28.378124L78.64375 26.9875L80.56563 26.9875L80.56563 24.425L82.3625 24.425ZM90.37813 34.909374L92.83125 26.9875L94.76875 26.9875L90.51875 39.175Q89.53438 41.815624 87.39375 41.815624L87.05 41.784374L86.37813 41.659374L86.37813 40.190624L86.8625 40.2375Q87.78438 40.2375 88.28438 39.8625Q88.8 39.4875 89.12813 38.503124L89.53438 37.425L85.76875 26.9875L87.7375 26.9875L90.37813 34.909374ZM100.44063 32.175Q100.44063 30.6125 101.05 29.378124Q101.65938 28.128124 102.7375 27.45625Q103.83125 26.784374 105.2375 26.784374Q107.39375 26.784374 108.72188 28.284374Q110.06563 29.76875 110.06563 32.253124L110.06563 32.378124Q110.06563 33.925 109.47188 35.159374Q108.87813 36.378124 107.76875 37.065624Q106.675 37.753124 105.25313 37.753124Q103.1125 37.753124 101.76875 36.253124Q100.44063 34.753124 100.44063 32.3L100.44063 32.175ZM102.25313 32.378124Q102.25313 34.14375 103.06563 35.20625Q103.89375 36.26875 105.25313 36.26875Q106.62813 36.26875 107.44063 35.190624Q108.25313 34.1125 108.25313 32.175Q108.25313 30.425 107.425 29.346874Q106.59688 28.26875 105.2375 28.26875Q103.89375 28.26875 103.06563 29.33125Q102.25313 30.39375 102.25313 32.378124ZM112.8 37.55L112.8 28.378124L111.14375 28.378124L111.14375 26.9875L112.8 26.9875L112.8 25.89375Q112.8 24.20625 113.70625 23.284374Q114.62813 22.346874 116.28438 22.346874Q116.90938 22.346874 117.51875 22.503124L117.425 23.971874Q116.97188 23.89375 116.45625 23.89375Q115.56563 23.89375 115.08125 24.409374Q114.6125 24.909374 114.6125 25.8625L114.6125 26.9875L116.8625 26.9875L116.8625 28.378124L114.6125 28.378124L114.6125 37.55L112.8 37.55ZM132.05 31.26875L126.08125 31.26875L126.08125 37.55L124.20625 37.55L124.20625 23.33125L133.00313 23.33125L133.00313 24.878124L126.08125 24.878124L126.08125 29.7375L132.05 29.7375L132.05 31.26875ZM136.87813 37.55L135.08125 37.55L135.08125 22.55L136.87813 22.55L136.87813 37.55ZM146.44063 36.503124Q145.39375 37.753124 143.34688 37.753124Q141.65938 37.753124 140.76875 36.76875Q139.89375 35.784374 139.87813 33.8625L139.87813 26.9875L141.69063 26.9875L141.69063 33.815624Q141.69063 36.20625 143.64375 36.20625Q145.70625 36.20625 146.39375 34.675L146.39375 26.9875L148.20625 26.9875L148.20625 37.55L146.4875 37.55L146.44063 36.503124ZM154.45625 30.846874L156.8 26.9875L158.90938 26.9875L155.45625 32.20625L159.01875 37.55L156.94063 37.55L154.4875 33.596874L152.05 37.55L149.95625 37.55L153.51875 32.20625L150.06563 26.9875L152.14375 26.9875L154.45625 30.846874Z" fill-rule="nonzero"/></svg>