<svg version="1.1" viewBox="0.0 0.0 960.0 540.0" fill="none" stroke="none" stroke-linecap="square" stroke-miterlimit="10" xmlns:xlink="http://www.w3.org/1999/xlink" xmlns="http://www.w3.org/2000/svg"><clipPath id="gab515836b6_0_60.0"><path d="m0 0l960.0 0l0 540.0l-960.0 0l0 -540.0z" clip-rule="nonzero"/></clipPath><g clip-path="url(#gab515836b6_0_60.0)"><path fill="#000000" fill-opacity="0.0" d="m0 0l960.0 0l0 540.0l-960.0 0z" fill-rule="evenodd"/><path fill="#c9daf8" d="m62.216343 49.132545l208.91339 0l0 97.41732l-208.91339 0z" fill-rule="evenodd"/><path fill="#000000" d="m81.88837 100.82496l-3.921875 0l0.25 -0.9375l3.390625 0l0.28125 0.9375zm-1.875 -5.0625l-2.84375 8.21875l-1.1875 0l3.984375 -10.984375l0.140625 0l3.984375 10.984375l-1.25 0l-2.828125 -8.21875zm5.2108917 7.375l4.90625 -5.984375l-4.53125 0l0 -1.09375l6.140625 0l0 0.859375l-4.8125 5.984375l4.46875 0q0.296875 0 0.421875 -0.03125q0.125 -0.03125 0.21875 -0.140625l0.125 0l0 0.171875l0 1.078125l-6.9375 0l0 -0.84375zm11.632767 1.03125q-0.46875 0 -0.890625 -0.140625q-0.40625 -0.140625 -0.75 -0.421875q-0.328125 -0.28125 -0.578125 -0.71875q-0.234375 -0.4375 -0.375 -1.03125q-0.125 -0.609375 -0.125 -1.375l0.015625 -4.421875l1.21875 0l0 4.421875q0 0.75 0.125 1.265625q0.140625 0.515625 0.390625 0.828125q0.265625 0.3125 0.59375 0.453125q0.328125 0.140625 0.6875 0.140625q0.421875 0 0.796875 -0.15625q0.375 -0.171875 0.671875 -0.5q0.3125 -0.328125 0.484375 -0.84375q0.171875 -0.53125 0.171875 -1.234375l0 -4.375l1.21875 0l0 6.6875q0 0.3125 0.015625 0.625q0.03125 0.296875 0.15625 0.609375l-1.1875 0q-0.09375 -0.203125 -0.125 -0.40625q-0.03125 -0.203125 -0.046875 -0.40625q0 -0.203125 0 -0.40625q-0.203125 0.328125 -0.46875 0.59375q-0.25 0.265625 -0.578125 0.453125q-0.3125 0.171875 -0.671875 0.265625q-0.34375 0.09375 -0.75 0.09375zm6.8983917 -8.109375l1.296875 0l-0.046875 2.3125l-0.15625 -0.265625q0.09375 -0.53125 0.359375 -0.953125q0.265625 -0.421875 0.625 -0.703125q0.359375 -0.28125 0.796875 -0.421875q0.4375 -0.15625 0.90625 -0.15625q0.625 0 1.140625 0.21875q0.53125 0.21875 0.953125 0.640625l-0.5625 0.984375l-0.0625 0.15625l-0.125 -0.078125q-0.03125 -0.140625 -0.109375 -0.25q-0.0625 -0.125 -0.28125 -0.296875q-0.28125 -0.171875 -0.515625 -0.234375q-0.234375 -0.0625 -0.53125 -0.0625q-0.4375 0 -0.875 0.171875q-0.421875 0.15625 -0.78125 0.5q-0.34375 0.34375 -0.5625 0.890625q-0.203125 0.53125 -0.203125 1.28125l0 4.203125l-1.265625 0l0 -7.9375zm11.320267 8.09375q-0.875 0 -1.59375 -0.265625q-0.703125 -0.265625 -1.21875 -0.78125q-0.5 -0.53125 -0.78125 -1.296875q-0.28125 -0.78125 -0.28125 -1.765625q0 -1.0 0.28125 -1.78125q0.296875 -0.78125 0.78125 -1.3125q0.5 -0.53125 1.171875 -0.796875q0.671875 -0.28125 1.40625 -0.28125q0.671875 0 1.265625 0.234375q0.59375 0.21875 1.015625 0.6875q0.4375 0.453125 0.6875 1.171875q0.265625 0.703125 0.265625 1.671875q0 0.140625 -0.015625 0.28125q-0.015625 0.140625 -0.03125 0.28125l-5.625 0q0.03125 0.765625 0.25 1.328125q0.234375 0.5625 0.59375 0.921875q0.359375 0.359375 0.828125 0.53125q0.484375 0.171875 1.03125 0.171875q0.40625 0 0.765625 -0.09375q0.375 -0.09375 0.6875 -0.296875q0.328125 -0.203125 0.59375 -0.5l0.6875 0.671875q-0.328125 0.40625 -0.75 0.6875q-0.421875 0.265625 -0.9375 0.390625q-0.5 0.140625 -1.078125 0.140625zm-2.625 -4.921875l4.359375 0q0 -0.546875 -0.15625 -0.984375q-0.140625 -0.453125 -0.421875 -0.765625q-0.265625 -0.328125 -0.640625 -0.484375q-0.359375 -0.171875 -0.828125 -0.171875q-0.421875 0 -0.796875 0.140625q-0.375 0.140625 -0.6875 0.453125q-0.3125 0.296875 -0.53125 0.75q-0.203125 0.4375 -0.296875 1.0625zm19.515533 4.921875q-1.0625 0 -1.90625 -0.34375q-0.828125 -0.34375 -1.46875 -1.03125l0.625 -1.078125l0.0625 -0.15625l0.125 0.0625q0.03125 0.125 0.078125 0.28125q0.0625 0.140625 0.25 0.34375q0.453125 0.375 1.046875 0.609375q0.59375 0.21875 1.359375 0.21875q0.484375 0 0.890625 -0.140625q0.40625 -0.15625 0.703125 -0.40625q0.3125 -0.25 0.46875 -0.578125q0.171875 -0.34375 0.171875 -0.71875q0 -0.296875 -0.0625 -0.53125q-0.0625 -0.25 -0.234375 -0.453125q-0.15625 -0.203125 -0.4375 -0.390625q-0.265625 -0.203125 -0.703125 -0.421875q-0.4375 -0.234375 -1.046875 -0.5q-1.125 -0.4375 -1.78125 -0.9375q-0.640625 -0.515625 -0.90625 -1.078125q-0.265625 -0.578125 -0.265625 -1.1875q0 -0.796875 0.390625 -1.390625q0.40625 -0.609375 1.140625 -0.9375q0.734375 -0.34375 1.765625 -0.34375q0.578125 0 1.125 0.171875q0.546875 0.15625 1.015625 0.453125q0.484375 0.296875 0.84375 0.734375l-0.671875 0.890625l-0.09375 0.140625l-0.109375 -0.0625q-0.015625 -0.140625 -0.078125 -0.28125q-0.046875 -0.140625 -0.234375 -0.34375q-0.421875 -0.40625 -0.890625 -0.546875q-0.46875 -0.140625 -1.109375 -0.140625q-0.421875 0 -0.765625 0.125q-0.34375 0.109375 -0.59375 0.34375q-0.234375 0.21875 -0.359375 0.515625q-0.125 0.28125 -0.125 0.578125q0 0.296875 0.0625 0.546875q0.078125 0.234375 0.25 0.46875q0.171875 0.21875 0.46875 0.453125q0.3125 0.21875 0.765625 0.453125q0.453125 0.21875 1.109375 0.484375q0.796875 0.328125 1.328125 0.65625q0.53125 0.3125 0.828125 0.671875q0.3125 0.34375 0.4375 0.765625q0.140625 0.40625 0.140625 0.90625q0 0.75 -0.375 1.46875q-0.375 0.71875 -1.171875 1.1875q-0.796875 0.46875 -2.0625 0.46875l0 0zm9.570267 -0.046875q-0.765625 0 -1.25 -0.265625q-0.484375 -0.265625 -0.75 -0.796875q-0.265625 -0.546875 -0.34375 -1.375q-0.078125 -0.84375 -0.03125 -1.984375l0.203125 -5.65625l1.296875 -0.15625l0.171875 -0.015625l0.015625 0.125q-0.078125 0.125 -0.140625 0.25q-0.0625 0.109375 -0.09375 0.40625l-0.15625 1.96875l0.046875 0.3125l-0.125 2.859375q-0.046875 1.3125 0.078125 2.03125q0.125 0.71875 0.4375 0.984375q0.3125 0.265625 0.828125 0.265625q0.5625 0 1.0 -0.21875q0.453125 -0.234375 0.9375 -0.578125l0.375 0.984375q-0.578125 0.4375 -1.203125 0.65625q-0.625 0.203125 -1.296875 0.203125l0 0zm-3.96875 -8.046875l5.6875 0l0 1.03125l-5.6875 0l0 -1.03125zm11.101517 8.109375q-1.359375 0 -2.09375 -0.609375q-0.71875 -0.625 -0.71875 -1.578125q0 -0.640625 0.3125 -1.140625q0.3125 -0.515625 0.859375 -0.859375q0.546875 -0.359375 1.265625 -0.546875q0.734375 -0.203125 1.546875 -0.203125q0.296875 0 0.59375 0.015625q0.3125 0 0.640625 0.03125q0.34375 0.03125 0.71875 0.078125l0.03125 0.953125q-0.3125 -0.046875 -0.640625 -0.078125q-0.3125 -0.03125 -0.625 -0.046875q-0.3125 -0.015625 -0.609375 -0.015625q-0.625 0 -1.140625 0.109375q-0.515625 0.09375 -0.90625 0.3125q-0.375 0.203125 -0.59375 0.53125q-0.203125 0.328125 -0.203125 0.796875q0 0.359375 0.125 0.609375q0.140625 0.25 0.359375 0.40625q0.234375 0.140625 0.53125 0.21875q0.296875 0.0625 0.671875 0.0625q0.671875 0 1.203125 -0.21875q0.53125 -0.21875 0.890625 -0.625q0.375 -0.421875 0.5625 -1.015625q0.203125 -0.609375 0.203125 -1.390625q0 -1.1875 -0.28125 -1.84375q-0.28125 -0.65625 -0.828125 -0.921875q-0.546875 -0.28125 -1.390625 -0.28125q-0.578125 0 -1.140625 0.21875q-0.546875 0.203125 -0.984375 0.65625l-0.609375 -0.796875q0.546875 -0.546875 1.265625 -0.828125q0.734375 -0.28125 1.5625 -0.28125q0.765625 0 1.40625 0.1875q0.65625 0.1875 1.109375 0.640625q0.453125 0.4375 0.703125 1.1875q0.265625 0.734375 0.265625 1.875l0 4.203125l-1.359375 0l0 -1.21875q-0.21875 0.4375 -0.546875 0.71875q-0.3125 0.28125 -0.6875 0.421875q-0.359375 0.140625 -0.75 0.203125q-0.375 0.0625 -0.71875 0.0625zm10.195267 -0.0625q-0.765625 0 -1.25 -0.265625q-0.484375 -0.265625 -0.75 -0.796875q-0.265625 -0.546875 -0.34375 -1.375q-0.078125 -0.84375 -0.03125 -1.984375l0.203125 -5.65625l1.296875 -0.15625l0.171875 -0.015625l0.015625 0.125q-0.078125 0.125 -0.140625 0.25q-0.0625 0.109375 -0.09375 0.40625l-0.15625 1.96875l0.046875 0.3125l-0.125 2.859375q-0.046875 1.3125 0.078125 2.03125q0.125 0.71875 0.4375 0.984375q0.3125 0.265625 0.828125 0.265625q0.5625 0 1.0 -0.21875q0.453125 -0.234375 0.9375 -0.578125l0.375 0.984375q-0.578125 0.4375 -1.203125 0.65625q-0.625 0.203125 -1.296875 0.203125l0 0zm-3.96875 -8.046875l5.6875 0l0 1.03125l-5.6875 0l0 -1.03125zm9.179642 7.921875l0 -1.0l2.03125 0l0 -5.90625l-1.921875 0l0 -1.015625l3.15625 0l0 6.921875l1.859375 0l0 1.0l-5.125 0zm2.671875 -9.578125q-0.375 0 -0.640625 -0.265625q-0.25 -0.265625 -0.25 -0.625q0 -0.375 0.25 -0.625q0.25 -0.265625 0.640625 -0.265625q0.359375 0 0.625 0.265625q0.265625 0.265625 0.265625 0.625q0 0.359375 -0.265625 0.625q-0.265625 0.265625 -0.625 0.265625zm9.195267 9.765625q-0.859375 0 -1.59375 -0.3125q-0.734375 -0.3125 -1.265625 -0.859375q-0.515625 -0.5625 -0.8125 -1.3125q-0.296875 -0.75 -0.296875 -1.65625q0 -0.875 0.296875 -1.625q0.296875 -0.765625 0.8125 -1.3125q0.53125 -0.5625 1.265625 -0.875q0.734375 -0.3125 1.578125 -0.3125q0.96875 0 1.734375 0.390625q0.78125 0.390625 1.265625 1.078125l-0.78125 0.765625l-0.125 0.125l-0.078125 -0.09375q0 -0.125 -0.0625 -0.25q-0.0625 -0.125 -0.265625 -0.328125q-0.390625 -0.34375 -0.828125 -0.484375q-0.421875 -0.140625 -1.0 -0.140625q-0.5 0 -0.953125 0.203125q-0.453125 0.203125 -0.8125 0.59375q-0.34375 0.390625 -0.5625 0.953125q-0.203125 0.546875 -0.203125 1.234375q0 0.671875 0.203125 1.234375q0.21875 0.5625 0.578125 0.984375q0.359375 0.40625 0.875 0.640625q0.515625 0.234375 1.09375 0.234375q0.40625 0 0.765625 -0.109375q0.375 -0.109375 0.703125 -0.328125q0.328125 -0.21875 0.59375 -0.53125l0.734375 0.84375q-0.59375 0.625 -1.3125 0.9375q-0.71875 0.3125 -1.546875 0.3125l0 0zm14.421768 -0.1875l-1.7343597 -10.796875l1.125 0l1.1562347 7.296875l1.734375 -6.5l0.390625 0l1.75 6.53125l0.984375 -7.328125l1.015625 0l-1.71875 10.796875l-0.46875 0l-1.84375 -7.046875l-1.890625 7.046875l-0.5 0zm11.351532 0.171875q-0.875 0 -1.59375 -0.265625q-0.703125 -0.265625 -1.21875 -0.78125q-0.5 -0.53125 -0.78125 -1.296875q-0.28125 -0.78125 -0.28125 -1.765625q0 -1.0 0.28125 -1.78125q0.296875 -0.78125 0.78125 -1.3125q0.5 -0.53125 1.171875 -0.796875q0.671875 -0.28125 1.40625 -0.28125q0.671875 0 1.265625 0.234375q0.59375 0.21875 1.015625 0.6875q0.4375 0.453125 0.6875 1.171875q0.265625 0.703125 0.265625 1.671875q0 0.140625 -0.015625 0.28125q-0.015625 0.140625 -0.03125 0.28125l-5.625 0q0.03125 0.765625 0.25 1.328125q0.234375 0.5625 0.59375 0.921875q0.359375 0.359375 0.828125 0.53125q0.484375 0.171875 1.03125 0.171875q0.40625 0 0.765625 -0.09375q0.375 -0.09375 0.6875 -0.296875q0.328125 -0.203125 0.59375 -0.5l0.6875 0.671875q-0.328125 0.40625 -0.75 0.6875q-0.421875 0.265625 -0.9375 0.390625q-0.5 0.140625 -1.078125 0.140625zm-2.625 -4.921875l4.359375 0q0 -0.546875 -0.15625 -0.984375q-0.140625 -0.453125 -0.421875 -0.765625q-0.265625 -0.328125 -0.640625 -0.484375q-0.359375 -0.171875 -0.828125 -0.171875q-0.421875 0 -0.796875 0.140625q-0.375 0.140625 -0.6875 0.453125q-0.3125 0.296875 -0.53125 0.75q-0.203125 0.4375 -0.296875 1.0625zm11.179626 4.9375q-0.484375 0 -0.921875 -0.15625q-0.4375 -0.140625 -0.796875 -0.40625q-0.34375 -0.28125 -0.625 -0.671875l-0.421875 1.046875l-0.796875 0l0 -11.515625l1.234375 0l0.171875 0l0 0.109375q-0.09375 0.109375 -0.125 0.234375q-0.03125 0.109375 -0.03125 0.40625l0 4.0625q0.203125 -0.3125 0.453125 -0.5625q0.265625 -0.265625 0.578125 -0.453125q0.3125 -0.203125 0.65625 -0.296875q0.34375 -0.09375 0.671875 -0.09375q0.734375 0 1.328125 0.25q0.59375 0.25 1.03125 0.765625q0.4375 0.515625 0.671875 1.28125q0.234375 0.75 0.234375 1.78125q0 1.046875 -0.28125 1.84375q-0.28125 0.796875 -0.765625 1.328125q-0.46875 0.53125 -1.0625 0.796875q-0.578125 0.25 -1.203125 0.25l0 0zm-0.15625 -1.109375q0.421875 0 0.8125 -0.15625q0.390625 -0.15625 0.6875 -0.5q0.3125 -0.359375 0.5 -0.953125q0.1875 -0.59375 0.1875 -1.4375q0 -0.78125 -0.15625 -1.359375q-0.15625 -0.578125 -0.453125 -0.953125q-0.28125 -0.390625 -0.6875 -0.5625q-0.390625 -0.1875 -0.859375 -0.1875q-0.640625 0 -1.140625 0.390625q-0.484375 0.390625 -0.765625 1.09375q-0.28125 0.6875 -0.28125 1.609375q0 0.6875 0.125 1.234375q0.125 0.546875 0.375 0.953125q0.25 0.390625 0.65625 0.609375q0.40625 0.21875 1.0 0.21875l0 0zm19.062408 -2.234375l-3.921875 0l0.25 -0.9375l3.390625 0l0.28125 0.9375zm-1.875 -5.0625l-2.84375 8.21875l-1.1875 0l3.984375 -10.984375l0.140625 0l3.984375 10.984375l-1.25 0l-2.828125 -8.21875zm5.398407 11.109375l0 -10.8125l1.25 0l0 1.5625q0.203125 -0.609375 0.546875 -0.984375q0.359375 -0.390625 0.828125 -0.5625q0.484375 -0.1875 1.046875 -0.1875q0.65625 0 1.25 0.25q0.59375 0.25 1.046875 0.765625q0.46875 0.5 0.734375 1.265625q0.265625 0.75 0.265625 1.796875q0 1.03125 -0.28125 1.828125q-0.28125 0.796875 -0.765625 1.328125q-0.46875 0.53125 -1.078125 0.796875q-0.59375 0.265625 -1.21875 0.265625q-0.46875 0 -0.90625 -0.15625q-0.4375 -0.140625 -0.8125 -0.421875q-0.359375 -0.28125 -0.625 -0.671875l0 3.9375l-1.28125 0zm3.421875 -3.796875q0.421875 0 0.8125 -0.140625q0.40625 -0.15625 0.734375 -0.5q0.328125 -0.34375 0.515625 -0.9375q0.1875 -0.59375 0.1875 -1.484375q0 -0.953125 -0.25 -1.609375q-0.234375 -0.671875 -0.703125 -1.03125q-0.453125 -0.375 -1.109375 -0.40625q-0.484375 -0.03125 -0.90625 0.140625q-0.421875 0.171875 -0.75 0.578125q-0.328125 0.390625 -0.515625 1.046875q-0.1875 0.640625 -0.1875 1.5625q0.03125 0.546875 0.125 1.0q0.109375 0.453125 0.296875 0.796875q0.1875 0.328125 0.453125 0.546875q0.265625 0.21875 0.59375 0.328125q0.328125 0.109375 0.703125 0.109375zm5.2421265 3.796875l0 -10.8125l1.25 0l0 1.5625q0.203125 -0.609375 0.546875 -0.984375q0.359375 -0.390625 0.828125 -0.5625q0.484375 -0.1875 1.046875 -0.1875q0.65625 0 1.25 0.25q0.59375 0.25 1.046875 0.765625q0.46875 0.5 0.734375 1.265625q0.265625 0.75 0.265625 1.796875q0 1.03125 -0.28125 1.828125q-0.28125 0.796875 -0.765625 1.328125q-0.46875 0.53125 -1.078125 0.796875q-0.59375 0.265625 -1.21875 0.265625q-0.46875 0 -0.90625 -0.15625q-0.4375 -0.140625 -0.8125 -0.421875q-0.359375 -0.28125 -0.625 -0.671875l0 3.9375l-1.28125 0zm3.421875 -3.796875q0.421875 0 0.8125 -0.140625q0.40625 -0.15625 0.734375 -0.5q0.328125 -0.34375 0.515625 -0.9375q0.1875 -0.59375 0.1875 -1.484375q0 -0.953125 -0.25 -1.609375q-0.234375 -0.671875 -0.703125 -1.03125q-0.453125 -0.375 -1.109375 -0.40625q-0.484375 -0.03125 -0.90625 0.140625q-0.421875 0.171875 -0.75 0.578125q-0.328125 0.390625 -0.515625 1.046875q-0.1875 0.640625 -0.1875 1.5625q0.03125 0.546875 0.125 1.0q0.109375 0.453125 0.296875 0.796875q0.1875 0.328125 0.453125 0.546875q0.265625 0.21875 0.59375 0.328125q0.328125 0.109375 0.703125 0.109375zm8.539032 1.078125q-0.65625 0 -1.25 -0.140625q-0.59375 -0.140625 -1.125 -0.40625q-0.53125 -0.28125 -0.984375 -0.703125l0.703125 -1.171875l0.09375 -0.15625l0.109375 0.0625q0.03125 0.140625 0.078125 0.296875q0.046875 0.140625 0.234375 0.34375q0.359375 0.375 0.875 0.609375q0.515625 0.234375 1.3125 0.234375q0.640625 0 1.078125 -0.15625q0.4375 -0.15625 0.671875 -0.4375q0.25 -0.296875 0.25 -0.671875q0 -0.265625 -0.109375 -0.46875q-0.09375 -0.203125 -0.328125 -0.375q-0.234375 -0.171875 -0.625 -0.34375q-0.375 -0.171875 -0.921875 -0.34375q-0.90625 -0.265625 -1.578125 -0.609375q-0.671875 -0.34375 -1.046875 -0.796875q-0.359375 -0.46875 -0.359375 -1.046875q0 -0.609375 0.328125 -1.046875q0.328125 -0.453125 0.96875 -0.703125q0.65625 -0.25 1.609375 -0.25q0.5625 0 1.0 0.078125q0.453125 0.078125 0.828125 0.234375q0.390625 0.15625 0.703125 0.390625q0.328125 0.234375 0.625 0.546875l-0.703125 0.859375l-0.125 0.140625l-0.09375 -0.078125q-0.015625 -0.140625 -0.078125 -0.265625q-0.0625 -0.140625 -0.25 -0.328125q-0.390625 -0.3125 -0.90625 -0.46875q-0.5 -0.171875 -0.96875 -0.171875q-0.6875 0 -1.1875 0.25q-0.5 0.234375 -0.5 0.734375q0 0.265625 0.171875 0.515625q0.1875 0.25 0.671875 0.5q0.484375 0.25 1.390625 0.515625q0.984375 0.3125 1.578125 0.640625q0.609375 0.3125 0.875 0.734375q0.265625 0.40625 0.265625 0.984375q0 0.65625 -0.359375 1.234375q-0.359375 0.5625 -1.09375 0.90625q-0.71875 0.328125 -1.828125 0.328125l0 0z" fill-rule="nonzero"/><path fill="#c9daf8" d="m375.5431 49.132545l208.91339 0l0 97.41732l-208.91339 0z" fill-rule="evenodd"/><path fill="#000000" d="m434.2032 90.32496l-3.921875 0l0.25 -0.9375l3.390625 0l0.28125 0.9375zm-1.875 -5.0625l-2.84375 8.21875l-1.1875 0l3.984375 -10.984375l0.140625 0l3.984375 10.984375l-1.25 0l-2.828125 -8.21875zm5.2108765 7.375l4.90625 -5.984375l-4.53125 0l0 -1.09375l6.140625 0l0 0.859375l-4.8125 5.984375l4.46875 0q0.296875 0 0.421875 -0.03125q0.125 -0.03125 0.21875 -0.140625l0.125 0l0 0.171875l0 1.078125l-6.9375 0l0 -0.84375zm11.632782 1.03125q-0.46875 0 -0.890625 -0.140625q-0.40625 -0.140625 -0.75 -0.421875q-0.328125 -0.28125 -0.578125 -0.71875q-0.234375 -0.4375 -0.375 -1.03125q-0.125 -0.609375 -0.125 -1.375l0.015625 -4.421875l1.21875 0l0 4.421875q0 0.75 0.125 1.265625q0.140625 0.515625 0.390625 0.828125q0.265625 0.3125 0.59375 0.453125q0.328125 0.140625 0.6875 0.140625q0.421875 0 0.796875 -0.15625q0.375 -0.171875 0.671875 -0.5q0.3125 -0.328125 0.484375 -0.84375q0.171875 -0.53125 0.171875 -1.234375l0 -4.375l1.21875 0l0 6.6875q0 0.3125 0.015625 0.625q0.03125 0.296875 0.15625 0.609375l-1.1875 0q-0.09375 -0.203125 -0.125 -0.40625q-0.03125 -0.203125 -0.046875 -0.40625q0 -0.203125 0 -0.40625q-0.203125 0.328125 -0.46875 0.59375q-0.25 0.265625 -0.578125 0.453125q-0.3125 0.171875 -0.671875 0.265625q-0.34375 0.09375 -0.75 0.09375zm6.8983765 -8.109375l1.296875 0l-0.046875 2.3125l-0.15625 -0.265625q0.09375 -0.53125 0.359375 -0.953125q0.265625 -0.421875 0.625 -0.703125q0.359375 -0.28125 0.796875 -0.421875q0.4375 -0.15625 0.90625 -0.15625q0.625 0 1.140625 0.21875q0.53125 0.21875 0.953125 0.640625l-0.5625 0.984375l-0.0625 0.15625l-0.125 -0.078125q-0.03125 -0.140625 -0.109375 -0.25q-0.0625 -0.125 -0.28125 -0.296875q-0.28125 -0.171875 -0.515625 -0.234375q-0.234375 -0.0625 -0.53125 -0.0625q-0.4375 0 -0.875 0.171875q-0.421875 0.15625 -0.78125 0.5q-0.34375 0.34375 -0.5625 0.890625q-0.203125 0.53125 -0.203125 1.28125l0 4.203125l-1.265625 0l0 -7.9375zm11.320282 8.09375q-0.875 0 -1.59375 -0.265625q-0.703125 -0.265625 -1.21875 -0.78125q-0.5 -0.53125 -0.78125 -1.296875q-0.28125 -0.78125 -0.28125 -1.765625q0 -1.0 0.28125 -1.78125q0.296875 -0.78125 0.78125 -1.3125q0.5 -0.53125 1.171875 -0.796875q0.671875 -0.28125 1.40625 -0.28125q0.671875 0 1.265625 0.234375q0.59375 0.21875 1.015625 0.6875q0.4375 0.453125 0.6875 1.171875q0.265625 0.703125 0.265625 1.671875q0 0.140625 -0.015625 0.28125q-0.015625 0.140625 -0.03125 0.28125l-5.625 0q0.03125 0.765625 0.25 1.328125q0.234375 0.5625 0.59375 0.921875q0.359375 0.359375 0.828125 0.53125q0.484375 0.171875 1.03125 0.171875q0.40625 0 0.765625 -0.09375q0.375 -0.09375 0.6875 -0.296875q0.328125 -0.203125 0.59375 -0.5l0.6875 0.671875q-0.328125 0.40625 -0.75 0.6875q-0.421875 0.265625 -0.9375 0.390625q-0.5 0.140625 -1.078125 0.140625zm-2.625 -4.921875l4.359375 0q0 -0.546875 -0.15625 -0.984375q-0.140625 -0.453125 -0.421875 -0.765625q-0.265625 -0.328125 -0.640625 -0.484375q-0.359375 -0.171875 -0.828125 -0.171875q-0.421875 0 -0.796875 0.140625q-0.375 0.140625 -0.6875 0.453125q-0.3125 0.296875 -0.53125 0.75q-0.203125 0.4375 -0.296875 1.0625zm20.171783 4.921875q-0.875 0 -1.640625 -0.3125q-0.765625 -0.328125 -1.34375 -1.0q-0.578125 -0.671875 -0.921875 -1.71875q-0.328125 -1.046875 -0.328125 -2.484375q0 -1.265625 0.25 -2.203125q0.25 -0.9375 0.65625 -1.578125q0.421875 -0.640625 0.953125 -1.015625q0.546875 -0.390625 1.125 -0.5625q0.59375 -0.171875 1.1875 -0.171875q1.171875 0 2.0 0.578125q0.84375 0.578125 1.25 1.546875l-1.03125 0.484375l-0.15625 0.0625l-0.0625 -0.109375q0.0625 -0.140625 0 -0.25q-0.046875 -0.125 -0.1875 -0.359375q-0.4375 -0.59375 -0.890625 -0.78125q-0.453125 -0.203125 -0.96875 -0.203125q-0.671875 0 -1.21875 0.296875q-0.546875 0.296875 -0.9375 0.890625q-0.390625 0.578125 -0.59375 1.40625q-0.1875 0.828125 -0.1875 1.890625q0 1.015625 0.234375 1.859375q0.234375 0.828125 0.640625 1.4375q0.40625 0.59375 0.953125 0.9375q0.546875 0.328125 1.171875 0.328125q0.421875 0 0.828125 -0.15625q0.421875 -0.15625 0.765625 -0.453125q0.34375 -0.3125 0.578125 -0.71875l0.90625 0.59375q-0.515625 0.859375 -1.25 1.3125q-0.71875 0.453125 -1.78125 0.453125l0 0zm8.054626 -0.03125q-1.078125 0 -1.90625 -0.53125q-0.8125 -0.53125 -1.28125 -1.453125q-0.46875 -0.921875 -0.46875 -2.125q0 -1.21875 0.46875 -2.140625q0.46875 -0.921875 1.28125 -1.453125q0.828125 -0.53125 1.90625 -0.53125q1.078125 0 1.890625 0.53125q0.828125 0.53125 1.296875 1.453125q0.46875 0.921875 0.46875 2.140625q0 1.203125 -0.46875 2.125q-0.46875 0.921875 -1.296875 1.453125q-0.8125 0.53125 -1.890625 0.53125zm0 -1.046875q0.703125 0 1.21875 -0.390625q0.515625 -0.40625 0.8125 -1.09375q0.3125 -0.6875 0.3125 -1.59375q0 -0.90625 -0.3125 -1.59375q-0.296875 -0.6875 -0.8125 -1.078125q-0.515625 -0.390625 -1.21875 -0.390625q-0.671875 0 -1.203125 0.390625q-0.53125 0.390625 -0.828125 1.078125q-0.296875 0.6875 -0.296875 1.59375q0 0.90625 0.296875 1.59375q0.296875 0.6875 0.828125 1.09375q0.53125 0.390625 1.203125 0.390625zm8.679657 1.078125q-0.65625 0 -1.25 -0.140625q-0.59375 -0.140625 -1.125 -0.40625q-0.53125 -0.28125 -0.984375 -0.703125l0.703125 -1.171875l0.09375 -0.15625l0.109375 0.0625q0.03125 0.140625 0.078125 0.296875q0.046875 0.140625 0.234375 0.34375q0.359375 0.375 0.875 0.609375q0.515625 0.234375 1.3125 0.234375q0.640625 0 1.078125 -0.15625q0.4375 -0.15625 0.671875 -0.4375q0.25 -0.296875 0.25 -0.671875q0 -0.265625 -0.109375 -0.46875q-0.09375 -0.203125 -0.328125 -0.375q-0.234375 -0.171875 -0.625 -0.34375q-0.375 -0.171875 -0.921875 -0.34375q-0.90625 -0.265625 -1.578125 -0.609375q-0.671875 -0.34375 -1.046875 -0.796875q-0.359375 -0.46875 -0.359375 -1.046875q0 -0.609375 0.328125 -1.046875q0.328125 -0.453125 0.96875 -0.703125q0.65625 -0.25 1.609375 -0.25q0.5625 0 1.0 0.078125q0.453125 0.078125 0.828125 0.234375q0.390625 0.15625 0.703125 0.390625q0.328125 0.234375 0.625 0.546875l-0.703125 0.859375l-0.125 0.140625l-0.09375 -0.078125q-0.015625 -0.140625 -0.078125 -0.265625q-0.0625 -0.140625 -0.25 -0.328125q-0.390625 -0.3125 -0.90625 -0.46875q-0.5 -0.171875 -0.96875 -0.171875q-0.6875 0 -1.1875 0.25q-0.5 0.234375 -0.5 0.734375q0 0.265625 0.171875 0.515625q0.1875 0.25 0.671875 0.5q0.484375 0.25 1.390625 0.515625q0.984375 0.3125 1.578125 0.640625q0.609375 0.3125 0.875 0.734375q0.265625 0.40625 0.265625 0.984375q0 0.65625 -0.359375 1.234375q-0.359375 0.5625 -1.09375 0.90625q-0.71875 0.328125 -1.828125 0.328125l0 0zm4.9765015 -0.171875l0 -7.921875l1.140625 0l0 0.78125q0.203125 -0.296875 0.453125 -0.5q0.25 -0.21875 0.546875 -0.34375q0.3125 -0.125 0.609375 -0.125q0.359375 0 0.640625 0.15625q0.296875 0.140625 0.5 0.40625q0.203125 0.25 0.265625 0.59375q0.15625 -0.34375 0.421875 -0.59375q0.28125 -0.265625 0.625 -0.40625q0.359375 -0.15625 0.75 -0.15625q0.390625 0 0.6875 0.15625q0.296875 0.15625 0.484375 0.421875q0.1875 0.265625 0.265625 0.640625q0.09375 0.375 0.078125 0.8125l0 6.078125l-1.140625 0l0 -5.609375q0 -0.734375 -0.09375 -1.0625q-0.09375 -0.328125 -0.265625 -0.421875q-0.171875 -0.09375 -0.390625 -0.09375q-0.328125 0 -0.609375 0.3125q-0.28125 0.296875 -0.46875 0.75q-0.1875 0.4375 -0.1875 0.890625l0 5.234375l-1.15625 0l0 -5.515625q0 -0.984375 -0.1875 -1.3125q-0.171875 -0.328125 -0.671875 -0.328125q-0.203125 0 -0.40625 0.140625q-0.1875 0.125 -0.359375 0.359375q-0.171875 0.234375 -0.28125 0.578125q-0.109375 0.34375 -0.109375 0.796875l0 5.28125l-1.140625 0zm12.335876 0.140625q-1.078125 0 -1.90625 -0.53125q-0.8125 -0.53125 -1.28125 -1.453125q-0.46875 -0.921875 -0.46875 -2.125q0 -1.21875 0.46875 -2.140625q0.46875 -0.921875 1.28125 -1.453125q0.828125 -0.53125 1.90625 -0.53125q1.078125 0 1.890625 0.53125q0.828125 0.53125 1.296875 1.453125q0.46875 0.921875 0.46875 2.140625q0 1.203125 -0.46875 2.125q-0.46875 0.921875 -1.296875 1.453125q-0.8125 0.53125 -1.890625 0.53125zm0 -1.046875q0.703125 0 1.21875 -0.390625q0.515625 -0.40625 0.8125 -1.09375q0.3125 -0.6875 0.3125 -1.59375q0 -0.90625 -0.3125 -1.59375q-0.296875 -0.6875 -0.8125 -1.078125q-0.515625 -0.390625 -1.21875 -0.390625q-0.671875 0 -1.203125 0.390625q-0.53125 0.390625 -0.828125 1.078125q-0.296875 0.6875 -0.296875 1.59375q0 0.90625 0.296875 1.59375q0.296875 0.6875 0.828125 1.09375q0.53125 0.390625 1.203125 0.390625zm8.6796875 1.078125q-0.65625 0 -1.25 -0.140625q-0.59375 -0.140625 -1.125 -0.40625q-0.53125 -0.28125 -0.984375 -0.703125l0.703125 -1.171875l0.09375 -0.15625l0.109375 0.0625q0.03125 0.140625 0.078125 0.296875q0.046875 0.140625 0.234375 0.34375q0.359375 0.375 0.875 0.609375q0.515625 0.234375 1.3125 0.234375q0.640625 0 1.078125 -0.15625q0.4375 -0.15625 0.671875 -0.4375q0.25 -0.296875 0.25 -0.671875q0 -0.265625 -0.109375 -0.46875q-0.09375 -0.203125 -0.328125 -0.375q-0.234375 -0.171875 -0.625 -0.34375q-0.375 -0.171875 -0.921875 -0.34375q-0.90625 -0.265625 -1.578125 -0.609375q-0.671875 -0.34375 -1.046875 -0.796875q-0.359375 -0.46875 -0.359375 -1.046875q0 -0.609375 0.328125 -1.046875q0.328125 -0.453125 0.96875 -0.703125q0.65625 -0.25 1.609375 -0.25q0.5625 0 1.0 0.078125q0.453125 0.078125 0.828125 0.234375q0.390625 0.15625 0.703125 0.390625q0.328125 0.234375 0.625 0.546875l-0.703125 0.859375l-0.125 0.140625l-0.09375 -0.078125q-0.015625 -0.140625 -0.078125 -0.265625q-0.0625 -0.140625 -0.25 -0.328125q-0.390625 -0.3125 -0.90625 -0.46875q-0.5 -0.171875 -0.96875 -0.171875q-0.6875 0 -1.1875 0.25q-0.5 0.234375 -0.5 0.734375q0 0.265625 0.171875 0.515625q0.1875 0.25 0.671875 0.5q0.484375 0.25 1.390625 0.515625q0.984375 0.3125 1.578125 0.640625q0.609375 0.3125 0.875 0.734375q0.265625 0.40625 0.265625 0.984375q0 0.65625 -0.359375 1.234375q-0.359375 0.5625 -1.09375 0.90625q-0.71875 0.328125 -1.828125 0.328125l0 0z" fill-rule="nonzero"/><path fill="#000000" d="m441.9492 114.49683l0 -10.8125l2.515625 0q0.9375 0 1.578125 0.171875q0.640625 0.171875 1.078125 0.5q0.453125 0.3125 0.796875 0.796875q0.375 0.484375 0.609375 1.09375q0.234375 0.609375 0.34375 1.328125q0.109375 0.71875 0.109375 1.5625q-0.046875 1.25 -0.328125 2.25q-0.28125 0.984375 -0.84375 1.671875q-0.546875 0.6875 -1.421875 1.0625q-0.875 0.375 -2.140625 0.375l-2.296875 0zm1.140625 -0.953125l1.109375 0q1.25 0 2.03125 -0.5q0.796875 -0.5 1.171875 -1.46875q0.390625 -0.96875 0.375 -2.359375q0 -1.421875 -0.359375 -2.421875q-0.34375 -1.015625 -1.078125 -1.546875q-0.734375 -0.53125 -1.953125 -0.53125l-1.296875 0l0 8.828125zm10.242157 1.125q-1.359375 0 -2.09375 -0.609375q-0.71875 -0.625 -0.71875 -1.578125q0 -0.640625 0.3125 -1.140625q0.3125 -0.515625 0.859375 -0.859375q0.546875 -0.359375 1.265625 -0.546875q0.734375 -0.203125 1.546875 -0.203125q0.296875 0 0.59375 0.015625q0.3125 0 0.640625 0.03125q0.34375 0.03125 0.71875 0.078125l0.03125 0.953125q-0.3125 -0.046875 -0.640625 -0.078125q-0.3125 -0.03125 -0.625 -0.046875q-0.3125 -0.015625 -0.609375 -0.015625q-0.625 0 -1.140625 0.109375q-0.515625 0.09375 -0.90625 0.3125q-0.375 0.203125 -0.59375 0.53125q-0.203125 0.328125 -0.203125 0.796875q0 0.359375 0.125 0.609375q0.140625 0.25 0.359375 0.40625q0.234375 0.140625 0.53125 0.21875q0.296875 0.0625 0.671875 0.0625q0.671875 0 1.203125 -0.21875q0.53125 -0.21875 0.890625 -0.625q0.375 -0.421875 0.5625 -1.015625q0.203125 -0.609375 0.203125 -1.390625q0 -1.1875 -0.28125 -1.84375q-0.28125 -0.65625 -0.828125 -0.921875q-0.546875 -0.28125 -1.390625 -0.28125q-0.578125 0 -1.140625 0.21875q-0.546875 0.203125 -0.984375 0.65625l-0.609375 -0.796875q0.546875 -0.546875 1.265625 -0.828125q0.734375 -0.28125 1.5625 -0.28125q0.765625 0 1.40625 0.1875q0.65625 0.1875 1.109375 0.640625q0.453125 0.4375 0.703125 1.1875q0.265625 0.734375 0.265625 1.875l0 4.203125l-1.359375 0l0 -1.21875q-0.21875 0.4375 -0.546875 0.71875q-0.3125 0.28125 -0.6875 0.421875q-0.359375 0.140625 -0.75 0.203125q-0.375 0.0625 -0.71875 0.0625zm10.195251 -0.0625q-0.765625 0 -1.25 -0.265625q-0.484375 -0.265625 -0.75 -0.796875q-0.265625 -0.546875 -0.34375 -1.375q-0.078125 -0.84375 -0.03125 -1.984375l0.203125 -5.65625l1.296875 -0.15625l0.171875 -0.015625l0.015625 0.125q-0.078125 0.125 -0.140625 0.25q-0.0625 0.109375 -0.09375 0.40625l-0.15625 1.96875l0.046875 0.3125l-0.125 2.859375q-0.046875 1.3125 0.078125 2.03125q0.125 0.71875 0.4375 0.984375q0.3125 0.265625 0.828125 0.265625q0.5625 0 1.0 -0.21875q0.453125 -0.234375 0.9375 -0.578125l0.375 0.984375q-0.578125 0.4375 -1.203125 0.65625q-0.625 0.203125 -1.296875 0.203125l0 0zm-3.96875 -8.046875l5.6875 0l0 1.03125l-5.6875 0l0 -1.03125zm11.101532 8.109375q-1.359375 0 -2.09375 -0.609375q-0.71875 -0.625 -0.71875 -1.578125q0 -0.640625 0.3125 -1.140625q0.3125 -0.515625 0.859375 -0.859375q0.546875 -0.359375 1.265625 -0.546875q0.734375 -0.203125 1.546875 -0.203125q0.296875 0 0.59375 0.015625q0.3125 0 0.640625 0.03125q0.34375 0.03125 0.71875 0.078125l0.03125 0.953125q-0.3125 -0.046875 -0.640625 -0.078125q-0.3125 -0.03125 -0.625 -0.046875q-0.3125 -0.015625 -0.609375 -0.015625q-0.625 0 -1.140625 0.109375q-0.515625 0.09375 -0.90625 0.3125q-0.375 0.203125 -0.59375 0.53125q-0.203125 0.328125 -0.203125 0.796875q0 0.359375 0.125 0.609375q0.140625 0.25 0.359375 0.40625q0.234375 0.140625 0.53125 0.21875q0.296875 0.0625 0.671875 0.0625q0.671875 0 1.203125 -0.21875q0.53125 -0.21875 0.890625 -0.625q0.375 -0.421875 0.5625 -1.015625q0.203125 -0.609375 0.203125 -1.390625q0 -1.1875 -0.28125 -1.84375q-0.28125 -0.65625 -0.828125 -0.921875q-0.546875 -0.28125 -1.390625 -0.28125q-0.578125 0 -1.140625 0.21875q-0.546875 0.203125 -0.984375 0.65625l-0.609375 -0.796875q0.546875 -0.546875 1.265625 -0.828125q0.734375 -0.28125 1.5625 -0.28125q0.765625 0 1.40625 0.1875q0.65625 0.1875 1.109375 0.640625q0.453125 0.4375 0.703125 1.1875q0.265625 0.734375 0.265625 1.875l0 4.203125l-1.359375 0l0 -1.21875q-0.21875 0.4375 -0.546875 0.71875q-0.3125 0.28125 -0.6875 0.421875q-0.359375 0.140625 -0.75 0.203125q-0.375 0.0625 -0.71875 0.0625zm5.8358765 -0.1875l0 -10.796875l3.078125 0q0.921875 0 1.59375 0.1875q0.6875 0.1875 1.125 0.546875q0.4375 0.34375 0.640625 0.828125q0.21875 0.484375 0.21875 1.0625q0 0.5 -0.1875 0.984375q-0.171875 0.484375 -0.53125 0.84375q-0.359375 0.359375 -0.875 0.5625q0.453125 0.15625 0.828125 0.4375q0.375 0.265625 0.640625 0.640625q0.265625 0.375 0.40625 0.796875q0.15625 0.421875 0.15625 0.875q0 0.671875 -0.25 1.234375q-0.234375 0.5625 -0.734375 0.96875q-0.484375 0.390625 -1.25 0.609375q-0.765625 0.21875 -1.8125 0.21875l-3.046875 0zm1.203125 -1.0625l2.0625 0q0.765625 0 1.328125 -0.1875q0.578125 -0.203125 0.890625 -0.65625q0.328125 -0.453125 0.328125 -1.203125q0 -0.640625 -0.28125 -1.125q-0.28125 -0.5 -0.890625 -0.78125q-0.609375 -0.28125 -1.671875 -0.28125l-1.765625 0l0 4.234375zm0 -5.265625l1.6875 0q0.953125 0 1.5 -0.21875q0.5625 -0.234375 0.796875 -0.625q0.25 -0.390625 0.25 -0.875q0 -0.359375 -0.125 -0.671875q-0.125 -0.3125 -0.40625 -0.546875q-0.28125 -0.234375 -0.734375 -0.359375q-0.4375 -0.140625 -1.078125 -0.140625l-1.890625 0l0 3.4375zm10.289032 6.515625q-1.359375 0 -2.09375 -0.609375q-0.71875 -0.625 -0.71875 -1.578125q0 -0.640625 0.3125 -1.140625q0.3125 -0.515625 0.859375 -0.859375q0.546875 -0.359375 1.265625 -0.546875q0.734375 -0.203125 1.546875 -0.203125q0.296875 0 0.59375 0.015625q0.3125 0 0.640625 0.03125q0.34375 0.03125 0.71875 0.078125l0.03125 0.953125q-0.3125 -0.046875 -0.640625 -0.078125q-0.3125 -0.03125 -0.625 -0.046875q-0.3125 -0.015625 -0.609375 -0.015625q-0.625 0 -1.140625 0.109375q-0.515625 0.09375 -0.90625 0.3125q-0.375 0.203125 -0.59375 0.53125q-0.203125 0.328125 -0.203125 0.796875q0 0.359375 0.125 0.609375q0.140625 0.25 0.359375 0.40625q0.234375 0.140625 0.53125 0.21875q0.296875 0.0625 0.671875 0.0625q0.671875 0 1.203125 -0.21875q0.53125 -0.21875 0.890625 -0.625q0.375 -0.421875 0.5625 -1.015625q0.203125 -0.609375 0.203125 -1.390625q0 -1.1875 -0.28125 -1.84375q-0.28125 -0.65625 -0.828125 -0.921875q-0.546875 -0.28125 -1.390625 -0.28125q-0.578125 0 -1.140625 0.21875q-0.546875 0.203125 -0.984375 0.65625l-0.609375 -0.796875q0.546875 -0.546875 1.265625 -0.828125q0.734375 -0.28125 1.5625 -0.28125q0.765625 0 1.40625 0.1875q0.65625 0.1875 1.109375 0.640625q0.453125 0.4375 0.703125 1.1875q0.265625 0.734375 0.265625 1.875l0 4.203125l-1.359375 0l0 -1.21875q-0.21875 0.4375 -0.546875 0.71875q-0.3125 0.28125 -0.6875 0.421875q-0.359375 0.140625 -0.75 0.203125q-0.375 0.0625 -0.71875 0.0625zm9.351501 -0.015625q-0.65625 0 -1.25 -0.140625q-0.59375 -0.140625 -1.125 -0.40625q-0.53125 -0.28125 -0.984375 -0.703125l0.703125 -1.171875l0.09375 -0.15625l0.109375 0.0625q0.03125 0.140625 0.078125 0.296875q0.046875 0.140625 0.234375 0.34375q0.359375 0.375 0.875 0.609375q0.515625 0.234375 1.3125 0.234375q0.640625 0 1.078125 -0.15625q0.4375 -0.15625 0.671875 -0.4375q0.25 -0.296875 0.25 -0.671875q0 -0.265625 -0.109375 -0.46875q-0.09375 -0.203125 -0.328125 -0.375q-0.234375 -0.171875 -0.625 -0.34375q-0.375 -0.171875 -0.921875 -0.34375q-0.90625 -0.265625 -1.578125 -0.609375q-0.671875 -0.34375 -1.046875 -0.796875q-0.359375 -0.46875 -0.359375 -1.046875q0 -0.609375 0.328125 -1.046875q0.328125 -0.453125 0.96875 -0.703125q0.65625 -0.25 1.609375 -0.25q0.5625 0 1.0 0.078125q0.453125 0.078125 0.828125 0.234375q0.390625 0.15625 0.703125 0.390625q0.328125 0.234375 0.625 0.546875l-0.703125 0.859375l-0.125 0.140625l-0.09375 -0.078125q-0.015625 -0.140625 -0.078125 -0.265625q-0.0625 -0.140625 -0.25 -0.328125q-0.390625 -0.3125 -0.90625 -0.46875q-0.5 -0.171875 -0.96875 -0.171875q-0.6875 0 -1.1875 0.25q-0.5 0.234375 -0.5 0.734375q0 0.265625 0.171875 0.515625q0.1875 0.25 0.671875 0.5q0.484375 0.25 1.390625 0.515625q0.984375 0.3125 1.578125 0.640625q0.609375 0.3125 0.875 0.734375q0.265625 0.40625 0.265625 0.984375q0 0.65625 -0.359375 1.234375q-0.359375 0.5625 -1.09375 0.90625q-0.71875 0.328125 -1.828125 0.328125l0 0zm9.039032 0q-0.875 0 -1.59375 -0.265625q-0.703125 -0.265625 -1.21875 -0.78125q-0.5 -0.53125 -0.78125 -1.296875q-0.28125 -0.78125 -0.28125 -1.765625q0 -1.0 0.28125 -1.78125q0.296875 -0.78125 0.78125 -1.3125q0.5 -0.53125 1.171875 -0.796875q0.671875 -0.28125 1.40625 -0.28125q0.671875 0 1.265625 0.234375q0.59375 0.21875 1.015625 0.6875q0.4375 0.453125 0.6875 1.171875q0.265625 0.703125 0.265625 1.671875q0 0.140625 -0.015625 0.28125q-0.015625 0.140625 -0.03125 0.28125l-5.625 0q0.03125 0.765625 0.25 1.328125q0.234375 0.5625 0.59375 0.921875q0.359375 0.359375 0.828125 0.53125q0.484375 0.171875 1.03125 0.171875q0.40625 0 0.765625 -0.09375q0.375 -0.09375 0.6875 -0.296875q0.328125 -0.203125 0.59375 -0.5l0.6875 0.671875q-0.328125 0.40625 -0.75 0.6875q-0.421875 0.265625 -0.9375 0.390625q-0.5 0.140625 -1.078125 0.140625zm-2.625 -4.921875l4.359375 0q0 -0.546875 -0.15625 -0.984375q-0.140625 -0.453125 -0.421875 -0.765625q-0.265625 -0.328125 -0.640625 -0.484375q-0.359375 -0.171875 -0.828125 -0.171875q-0.421875 0 -0.796875 0.140625q-0.375 0.140625 -0.6875 0.453125q-0.3125 0.296875 -0.53125 0.75q-0.203125 0.4375 -0.296875 1.0625zm10.914032 4.921875q-0.65625 0 -1.25 -0.140625q-0.59375 -0.140625 -1.125 -0.40625q-0.53125 -0.28125 -0.984375 -0.703125l0.703125 -1.171875l0.09375 -0.15625l0.109375 0.0625q0.03125 0.140625 0.078125 0.296875q0.046875 0.140625 0.234375 0.34375q0.359375 0.375 0.875 0.609375q0.515625 0.234375 1.3125 0.234375q0.640625 0 1.078125 -0.15625q0.4375 -0.15625 0.671875 -0.4375q0.25 -0.296875 0.25 -0.671875q0 -0.265625 -0.109375 -0.46875q-0.09375 -0.203125 -0.328125 -0.375q-0.234375 -0.171875 -0.625 -0.34375q-0.375 -0.171875 -0.921875 -0.34375q-0.90625 -0.265625 -1.578125 -0.609375q-0.671875 -0.34375 -1.046875 -0.796875q-0.359375 -0.46875 -0.359375 -1.046875q0 -0.609375 0.328125 -1.046875q0.328125 -0.453125 0.96875 -0.703125q0.65625 -0.25 1.609375 -0.25q0.5625 0 1.0 0.078125q0.453125 0.078125 0.828125 0.234375q0.390625 0.15625 0.703125 0.390625q0.328125 0.234375 0.625 0.546875l-0.703125 0.859375l-0.125 0.140625l-0.09375 -0.078125q-0.015625 -0.140625 -0.078125 -0.265625q-0.0625 -0.140625 -0.25 -0.328125q-0.390625 -0.3125 -0.90625 -0.46875q-0.5 -0.171875 -0.96875 -0.171875q-0.6875 0 -1.1875 0.25q-0.5 0.234375 -0.5 0.734375q0 0.265625 0.171875 0.515625q0.1875 0.25 0.671875 0.5q0.484375 0.25 1.390625 0.515625q0.984375 0.3125 1.578125 0.640625q0.609375 0.3125 0.875 0.734375q0.265625 0.40625 0.265625 0.984375q0 0.65625 -0.359375 1.234375q-0.359375 0.5625 -1.09375 0.90625q-0.71875 0.328125 -1.828125 0.328125l0 0z" fill-rule="nonzero"/><path fill="#c9daf8" d="m375.5431 220.20859l208.91339 0l0 97.41733l-208.91339 0z" fill-rule="evenodd"/><path fill="#000000" d="m425.53915 271.901l-3.921875 0l0.25 -0.9375l3.390625 0l0.28125 0.9375zm-1.875 -5.0625l-2.84375 8.21875l-1.1875 0l3.984375 -10.984375l0.140625 0l3.984375 10.984375l-1.25 0l-2.828125 -8.21875zm5.210907 7.375l4.90625 -5.984375l-4.53125 0l0 -1.09375l6.140625 0l0 0.859375l-4.8125 5.984375l4.46875 0q0.296875 0 0.421875 -0.03125q0.125 -0.03125 0.21875 -0.140625l0.125 0l0 0.171875l0 1.078125l-6.9375 0l0 -0.84375zm11.632751 1.03125q-0.46875 0 -0.890625 -0.140625q-0.40625 -0.140625 -0.75 -0.421875q-0.328125 -0.28125 -0.578125 -0.71875q-0.234375 -0.4375 -0.375 -1.03125q-0.125 -0.609375 -0.125 -1.375l0.015625 -4.421875l1.21875 0l0 4.421875q0 0.75 0.125 1.265625q0.140625 0.515625 0.390625 0.828125q0.265625 0.3125 0.59375 0.453125q0.328125 0.140625 0.6875 0.140625q0.421875 0 0.796875 -0.15625q0.375 -0.171875 0.671875 -0.5q0.3125 -0.328125 0.484375 -0.84375q0.171875 -0.53125 0.171875 -1.234375l0 -4.375l1.21875 0l0 6.6875q0 0.3125 0.015625 0.625q0.03125 0.296875 0.15625 0.609375l-1.1875 0q-0.09375 -0.203125 -0.125 -0.40625q-0.03125 -0.203125 -0.046875 -0.40625q0 -0.203125 0 -0.40625q-0.203125 0.328125 -0.46875 0.59375q-0.25 0.265625 -0.578125 0.453125q-0.3125 0.171875 -0.671875 0.265625q-0.34375 0.09375 -0.75 0.09375zm6.898407 -8.109375l1.296875 0l-0.046875 2.3125l-0.15625 -0.265625q0.09375 -0.53125 0.359375 -0.953125q0.265625 -0.421875 0.625 -0.703125q0.359375 -0.28125 0.796875 -0.421875q0.4375 -0.15625 0.90625 -0.15625q0.625 0 1.140625 0.21875q0.53125 0.21875 0.953125 0.640625l-0.5625 0.984375l-0.0625 0.15625l-0.125 -0.078125q-0.03125 -0.140625 -0.109375 -0.25q-0.0625 -0.125 -0.28125 -0.296875q-0.28125 -0.171875 -0.515625 -0.234375q-0.234375 -0.0625 -0.53125 -0.0625q-0.4375 0 -0.875 0.171875q-0.421875 0.15625 -0.78125 0.5q-0.34375 0.34375 -0.5625 0.890625q-0.203125 0.53125 -0.203125 1.28125l0 4.203125l-1.265625 0l0 -7.9375zm11.320251 8.09375q-0.875 0 -1.59375 -0.265625q-0.703125 -0.265625 -1.21875 -0.78125q-0.5 -0.53125 -0.78125 -1.296875q-0.28125 -0.78125 -0.28125 -1.765625q0 -1.0 0.28125 -1.78125q0.296875 -0.78125 0.78125 -1.3125q0.5 -0.53125 1.171875 -0.796875q0.671875 -0.28125 1.40625 -0.28125q0.671875 0 1.265625 0.234375q0.59375 0.21875 1.015625 0.6875q0.4375 0.453125 0.6875 1.171875q0.265625 0.703125 0.265625 1.671875q0 0.140625 -0.015625 0.28125q-0.015625 0.140625 -0.03125 0.28125l-5.625 0q0.03125 0.765625 0.25 1.328125q0.234375 0.5625 0.59375 0.921875q0.359375 0.359375 0.828125 0.53125q0.484375 0.171875 1.03125 0.171875q0.40625 0 0.765625 -0.09375q0.375 -0.09375 0.6875 -0.296875q0.328125 -0.203125 0.59375 -0.5l0.6875 0.671875q-0.328125 0.40625 -0.75 0.6875q-0.421875 0.265625 -0.9375 0.390625q-0.5 0.140625 -1.078125 0.140625zm-2.625 -4.921875l4.359375 0q0 -0.546875 -0.15625 -0.984375q-0.140625 -0.453125 -0.421875 -0.765625q-0.265625 -0.328125 -0.640625 -0.484375q-0.359375 -0.171875 -0.828125 -0.171875q-0.421875 0 -0.796875 0.140625q-0.375 0.140625 -0.6875 0.453125q-0.3125 0.296875 -0.53125 0.75q-0.203125 0.4375 -0.296875 1.0625zm16.593658 4.75l0 -10.8125l6.21875 0l0 1.0625l-5.015625 0l0 3.390625l4.046875 0l0 1.0625l-4.046875 0l0 5.296875l-1.203125 0zm11.132782 0.1875q-0.46875 0 -0.890625 -0.140625q-0.40625 -0.140625 -0.75 -0.421875q-0.328125 -0.28125 -0.578125 -0.71875q-0.234375 -0.4375 -0.375 -1.03125q-0.125 -0.609375 -0.125 -1.375l0.015625 -4.421875l1.21875 0l0 4.421875q0 0.75 0.125 1.265625q0.140625 0.515625 0.390625 0.828125q0.265625 0.3125 0.59375 0.453125q0.328125 0.140625 0.6875 0.140625q0.421875 0 0.796875 -0.15625q0.375 -0.171875 0.671875 -0.5q0.3125 -0.328125 0.484375 -0.84375q0.171875 -0.53125 0.171875 -1.234375l0 -4.375l1.21875 0l0 6.6875q0 0.3125 0.015625 0.625q0.03125 0.296875 0.15625 0.609375l-1.1875 0q-0.09375 -0.203125 -0.125 -0.40625q-0.03125 -0.203125 -0.046875 -0.40625q0 -0.203125 0 -0.40625q-0.203125 0.328125 -0.46875 0.59375q-0.25 0.265625 -0.578125 0.453125q-0.3125 0.171875 -0.671875 0.265625q-0.34375 0.09375 -0.75 0.09375zm6.0858765 -0.1875l0 -7.921875l1.203125 0l0 1.40625q0.3125 -0.484375 0.734375 -0.84375q0.421875 -0.359375 0.921875 -0.546875q0.5 -0.203125 1.03125 -0.203125q0.671875 0 1.1875 0.328125q0.515625 0.328125 0.828125 1.0625q0.3125 0.71875 0.3125 1.921875l0 4.796875l-1.21875 0l0 -4.765625q0 -0.828125 -0.1875 -1.3125q-0.1875 -0.5 -0.515625 -0.71875q-0.328125 -0.21875 -0.75 -0.21875q-0.390625 0 -0.796875 0.171875q-0.40625 0.171875 -0.765625 0.5q-0.34375 0.3125 -0.5625 0.765625q-0.21875 0.453125 -0.21875 1.015625l0 4.5625l-1.203125 0zm12.351532 0.1875q-0.859375 0 -1.59375 -0.3125q-0.734375 -0.3125 -1.265625 -0.859375q-0.515625 -0.5625 -0.8125 -1.3125q-0.296875 -0.75 -0.296875 -1.65625q0 -0.875 0.296875 -1.625q0.296875 -0.765625 0.8125 -1.3125q0.53125 -0.5625 1.265625 -0.875q0.734375 -0.3125 1.578125 -0.3125q0.96875 0 1.734375 0.390625q0.78125 0.390625 1.265625 1.078125l-0.78125 0.765625l-0.125 0.125l-0.078125 -0.09375q0 -0.125 -0.0625 -0.25q-0.0625 -0.125 -0.265625 -0.328125q-0.390625 -0.34375 -0.828125 -0.484375q-0.421875 -0.140625 -1.0 -0.140625q-0.5 0 -0.953125 0.203125q-0.453125 0.203125 -0.8125 0.59375q-0.34375 0.390625 -0.5625 0.953125q-0.203125 0.546875 -0.203125 1.234375q0 0.671875 0.203125 1.234375q0.21875 0.5625 0.578125 0.984375q0.359375 0.40625 0.875 0.640625q0.515625 0.234375 1.09375 0.234375q0.40625 0 0.765625 -0.109375q0.375 -0.109375 0.703125 -0.328125q0.328125 -0.21875 0.59375 -0.53125l0.734375 0.84375q-0.59375 0.625 -1.3125 0.9375q-0.71875 0.3125 -1.546875 0.3125l0 0zm8.914001 -0.0625q-0.765625 0 -1.25 -0.265625q-0.484375 -0.265625 -0.75 -0.796875q-0.265625 -0.546875 -0.34375 -1.375q-0.078125 -0.84375 -0.03125 -1.984375l0.203125 -5.65625l1.296875 -0.15625l0.171875 -0.015625l0.015625 0.125q-0.078125 0.125 -0.140625 0.25q-0.0625 0.109375 -0.09375 0.40625l-0.15625 1.96875l0.046875 0.3125l-0.125 2.859375q-0.046875 1.3125 0.078125 2.03125q0.125 0.71875 0.4375 0.984375q0.3125 0.265625 0.828125 0.265625q0.5625 0 1.0 -0.21875q0.453125 -0.234375 0.9375 -0.578125l0.375 0.984375q-0.578125 0.4375 -1.203125 0.65625q-0.625 0.203125 -1.296875 0.203125l0 0zm-3.96875 -8.046875l5.6875 0l0 1.03125l-5.6875 0l0 -1.03125zm9.179626 7.921875l0 -1.0l2.03125 0l0 -5.90625l-1.921875 0l0 -1.015625l3.15625 0l0 6.921875l1.859375 0l0 1.0l-5.125 0zm2.671875 -9.578125q-0.375 0 -0.640625 -0.265625q-0.25 -0.265625 -0.25 -0.625q0 -0.375 0.25 -0.625q0.25 -0.265625 0.640625 -0.265625q0.359375 0 0.625 0.265625q0.265625 0.265625 0.265625 0.625q0 0.359375 -0.265625 0.625q-0.265625 0.265625 -0.625 0.265625zm8.5859375 9.71875q-1.078125 0 -1.90625 -0.53125q-0.8125 -0.53125 -1.28125 -1.453125q-0.46875 -0.921875 -0.46875 -2.125q0 -1.21875 0.46875 -2.140625q0.46875 -0.921875 1.28125 -1.453125q0.828125 -0.53125 1.90625 -0.53125q1.078125 0 1.890625 0.53125q0.828125 0.53125 1.296875 1.453125q0.46875 0.921875 0.46875 2.140625q0 1.203125 -0.46875 2.125q-0.46875 0.921875 -1.296875 1.453125q-0.8125 0.53125 -1.890625 0.53125zm0 -1.046875q0.703125 0 1.21875 -0.390625q0.515625 -0.40625 0.8125 -1.09375q0.3125 -0.6875 0.3125 -1.59375q0 -0.90625 -0.3125 -1.59375q-0.296875 -0.6875 -0.8125 -1.078125q-0.515625 -0.390625 -1.21875 -0.390625q-0.671875 0 -1.203125 0.390625q-0.53125 0.390625 -0.828125 1.078125q-0.296875 0.6875 -0.296875 1.59375q0 0.90625 0.296875 1.59375q0.296875 0.6875 0.828125 1.09375q0.53125 0.390625 1.203125 0.390625zm5.5858765 0.90625l0 -7.921875l1.203125 0l0 1.40625q0.3125 -0.484375 0.734375 -0.84375q0.421875 -0.359375 0.921875 -0.546875q0.5 -0.203125 1.03125 -0.203125q0.671875 0 1.1875 0.328125q0.515625 0.328125 0.828125 1.0625q0.3125 0.71875 0.3125 1.921875l0 4.796875l-1.21875 0l0 -4.765625q0 -0.828125 -0.1875 -1.3125q-0.1875 -0.5 -0.515625 -0.71875q-0.328125 -0.21875 -0.75 -0.21875q-0.390625 0 -0.796875 0.171875q-0.40625 0.171875 -0.765625 0.5q-0.34375 0.3125 -0.5625 0.765625q-0.21875 0.453125 -0.21875 1.015625l0 4.5625l-1.203125 0z" fill-rule="nonzero"/><path fill="#b5cea8" d="m688.888 220.20859l208.91339 0l0 97.41733l-208.91339 0z" fill-rule="evenodd"/><path fill="#000000" d="m770.96204 275.05725l0 -9.71875l-3.078125 0l0 -1.09375l7.484375 0l0 1.09375l-3.1875 0l0 9.71875l-1.21875 0zm6.9296265 0.015625l-1.59375 -7.9375l1.09375 0l1.28125 6.359375l1.34375 -5.609375l0.765625 0l1.6875 5.59375q0.21875 -1.546875 0.359375 -2.53125q0.15625 -0.984375 0.234375 -1.609375q0.078125 -0.640625 0.09375 -1.0625q0.03125 -0.4375 0.03125 -0.875l0 -0.265625l1.15625 0q-0.171875 1.34375 -0.375 2.671875q-0.1875 1.3125 -0.421875 2.640625q-0.234375 1.3125 -0.515625 2.625l-1.171875 0l-1.453125 -5.125l-1.390625 5.125l-1.125 0zm8.523376 -0.015625l0 -1.0l2.03125 0l0 -5.90625l-1.921875 0l0 -1.015625l3.15625 0l0 6.921875l1.859375 0l0 1.0l-5.125 0zm2.671875 -9.578125q-0.375 0 -0.640625 -0.265625q-0.25 -0.265625 -0.25 -0.625q0 -0.375 0.25 -0.625q0.25 -0.265625 0.640625 -0.265625q0.359375 0 0.625 0.265625q0.265625 0.265625 0.265625 0.625q0 0.359375 -0.265625 0.625q-0.265625 0.265625 -0.625 0.265625zm5.6327515 9.578125l0 -1.0l2.328125 0l0 -9.515625l-2.234375 0l0 -1.0l3.5 0l0 10.515625l2.328125 0l0 1.0l-5.921875 0zm9.0234375 0l0 -1.0l2.03125 0l0 -5.90625l-1.921875 0l0 -1.015625l3.15625 0l0 6.921875l1.859375 0l0 1.0l-5.125 0zm2.671875 -9.578125q-0.375 0 -0.640625 -0.265625q-0.25 -0.265625 -0.25 -0.625q0 -0.375 0.25 -0.625q0.25 -0.265625 0.640625 -0.265625q0.359375 0 0.625 0.265625q0.265625 0.265625 0.265625 0.625q0 0.359375 -0.265625 0.625q-0.265625 0.265625 -0.625 0.265625zm8.585876 9.71875q-1.078125 0 -1.90625 -0.53125q-0.8125 -0.53125 -1.28125 -1.453125q-0.46875 -0.921875 -0.46875 -2.125q0 -1.21875 0.46875 -2.140625q0.46875 -0.921875 1.28125 -1.453125q0.828125 -0.53125 1.90625 -0.53125q1.078125 0 1.890625 0.53125q0.828125 0.53125 1.296875 1.453125q0.46875 0.921875 0.46875 2.140625q0 1.203125 -0.46875 2.125q-0.46875 0.921875 -1.296875 1.453125q-0.8125 0.53125 -1.890625 0.53125zm0 -1.046875q0.703125 0 1.21875 -0.390625q0.515625 -0.40625 0.8125 -1.09375q0.3125 -0.6875 0.3125 -1.59375q0 -0.90625 -0.3125 -1.59375q-0.296875 -0.6875 -0.8125 -1.078125q-0.515625 -0.390625 -1.21875 -0.390625q-0.671875 0 -1.203125 0.390625q-0.53125 0.390625 -0.828125 1.078125q-0.296875 0.6875 -0.296875 1.59375q0 0.90625 0.296875 1.59375q0.296875 0.6875 0.828125 1.09375q0.53125 0.390625 1.203125 0.390625z" fill-rule="nonzero"/><path fill="#c5c8c6" d="m62.198162 220.20859l208.91338 0l0 97.41733l-208.91338 0z" fill-rule="evenodd"/><path fill="#000000" d="m123.34652 254.24475q-1.734375 0 -2.609375 -1.03125q-0.875 -1.03125 -0.875 -2.875l0 -7.078125l1.1875 0l0.171875 0l0 0.125q-0.109375 0.109375 -0.140625 0.234375q-0.015625 0.109375 -0.015625 0.40625l0 6.328125q0 1.3125 0.5 2.09375q0.515625 0.78125 1.796875 0.78125q1.3125 0 1.828125 -0.78125q0.515625 -0.78125 0.515625 -2.15625l0 -7.03125l1.15625 0l0 7.015625q0 1.375 -0.4375 2.25q-0.421875 0.875 -1.21875 1.296875q-0.78125 0.421875 -1.859375 0.421875l0 0zm8.445259 0q-0.421875 0 -0.71875 -0.296875q-0.28125 -0.296875 -0.28125 -0.6875q0 -0.40625 0.28125 -0.6875q0.296875 -0.296875 0.71875 -0.296875q0.390625 0 0.6875 0.296875q0.296875 0.28125 0.296875 0.6875q0 0.390625 -0.296875 0.6875q-0.296875 0.296875 -0.6875 0.296875zm8.820267 -0.015625q-1.0625 0 -1.90625 -0.34375q-0.828125 -0.34375 -1.46875 -1.03125l0.625 -1.078125l0.0625 -0.15625l0.125 0.0625q0.03125 0.125 0.078125 0.28125q0.0625 0.140625 0.25 0.34375q0.453125 0.375 1.046875 0.609375q0.59375 0.21875 1.359375 0.21875q0.484375 0 0.890625 -0.140625q0.40625 -0.15625 0.703125 -0.40625q0.3125 -0.25 0.46875 -0.578125q0.171875 -0.34375 0.171875 -0.71875q0 -0.296875 -0.0625 -0.53125q-0.0625 -0.25 -0.234375 -0.453125q-0.15625 -0.203125 -0.4375 -0.390625q-0.265625 -0.203125 -0.703125 -0.421875q-0.4375 -0.234375 -1.046875 -0.5q-1.125 -0.4375 -1.78125 -0.9375q-0.640625 -0.515625 -0.90625 -1.078125q-0.265625 -0.578125 -0.265625 -1.1875q0 -0.796875 0.390625 -1.390625q0.40625 -0.609375 1.140625 -0.9375q0.734375 -0.34375 1.765625 -0.34375q0.578125 0 1.125 0.171875q0.546875 0.15625 1.015625 0.453125q0.484375 0.296875 0.84375 0.734375l-0.671875 0.890625l-0.09375 0.140625l-0.109375 -0.0625q-0.015625 -0.140625 -0.078125 -0.28125q-0.046875 -0.140625 -0.234375 -0.34375q-0.421875 -0.40625 -0.890625 -0.546875q-0.46875 -0.140625 -1.109375 -0.140625q-0.421875 0 -0.765625 0.125q-0.34375 0.109375 -0.59375 0.34375q-0.234375 0.21875 -0.359375 0.515625q-0.125 0.28125 -0.125 0.578125q0 0.296875 0.0625 0.546875q0.078125 0.234375 0.25 0.46875q0.171875 0.21875 0.46875 0.453125q0.3125 0.21875 0.765625 0.453125q0.453125 0.21875 1.109375 0.484375q0.796875 0.328125 1.328125 0.65625q0.53125 0.3125 0.828125 0.671875q0.3125 0.34375 0.4375 0.765625q0.140625 0.40625 0.140625 0.90625q0 0.75 -0.375 1.46875q-0.375 0.71875 -1.171875 1.1875q-0.796875 0.46875 -2.0625 0.46875l0 0zm8.507767 0.015625q-0.421875 0 -0.71875 -0.296875q-0.28125 -0.296875 -0.28125 -0.6875q0 -0.40625 0.28125 -0.6875q0.296875 -0.296875 0.71875 -0.296875q0.390625 0 0.6875 0.296875q0.296875 0.28125 0.296875 0.6875q0 0.390625 -0.296875 0.6875q-0.296875 0.296875 -0.6875 0.296875zm14.218658 -0.1875l0 -10.8125l6.625 0l0 1.078125l-5.46875 0l0 3.546875l4.515625 0l0 1.109375l-4.515625 0l0 4.0l5.421875 0l0 1.078125l-6.578125 0zm8.898392 0l0 -7.921875l1.203125 0l0 1.40625q0.3125 -0.484375 0.734375 -0.84375q0.421875 -0.359375 0.921875 -0.546875q0.5 -0.203125 1.03125 -0.203125q0.671875 0 1.1875 0.328125q0.515625 0.328125 0.828125 1.0625q0.3125 0.71875 0.3125 1.921875l0 4.796875l-1.21875 0l0 -4.765625q0 -0.828125 -0.1875 -1.3125q-0.1875 -0.5 -0.515625 -0.71875q-0.328125 -0.21875 -0.75 -0.21875q-0.390625 0 -0.796875 0.171875q-0.40625 0.171875 -0.765625 0.5q-0.34375 0.3125 -0.5625 0.765625q-0.21875 0.453125 -0.21875 1.015625l0 4.5625l-1.203125 0zm12.132767 0.171875q-0.875 0 -1.59375 -0.265625q-0.703125 -0.265625 -1.21875 -0.78125q-0.5 -0.53125 -0.78125 -1.296875q-0.28125 -0.78125 -0.28125 -1.765625q0 -1.0 0.28125 -1.78125q0.296875 -0.78125 0.78125 -1.3125q0.5 -0.53125 1.171875 -0.796875q0.671875 -0.28125 1.40625 -0.28125q0.671875 0 1.265625 0.234375q0.59375 0.21875 1.015625 0.6875q0.4375 0.453125 0.6875 1.171875q0.265625 0.703125 0.265625 1.671875q0 0.140625 -0.015625 0.28125q-0.015625 0.140625 -0.03125 0.28125l-5.625 0q0.03125 0.765625 0.25 1.328125q0.234375 0.5625 0.59375 0.921875q0.359375 0.359375 0.828125 0.53125q0.484375 0.171875 1.03125 0.171875q0.40625 0 0.765625 -0.09375q0.375 -0.09375 0.6875 -0.296875q0.328125 -0.203125 0.59375 -0.5l0.6875 0.671875q-0.328125 0.40625 -0.75 0.6875q-0.421875 0.265625 -0.9375 0.390625q-0.5 0.140625 -1.078125 0.140625zm-2.625 -4.921875l4.359375 0q0 -0.546875 -0.15625 -0.984375q-0.140625 -0.453125 -0.421875 -0.765625q-0.265625 -0.328125 -0.640625 -0.484375q-0.359375 -0.171875 -0.828125 -0.171875q-0.421875 0 -0.796875 0.140625q-0.375 0.140625 -0.6875 0.453125q-0.3125 0.296875 -0.53125 0.75q-0.203125 0.4375 -0.296875 1.0625zm8.632767 -3.171875l1.296875 0l-0.046875 2.3125l-0.15625 -0.265625q0.09375 -0.53125 0.359375 -0.953125q0.265625 -0.421875 0.625 -0.703125q0.359375 -0.28125 0.796875 -0.421875q0.4375 -0.15625 0.90625 -0.15625q0.625 0 1.140625 0.21875q0.53125 0.21875 0.953125 0.640625l-0.5625 0.984375l-0.0625 0.15625l-0.125 -0.078125q-0.03125 -0.140625 -0.109375 -0.25q-0.0625 -0.125 -0.28125 -0.296875q-0.28125 -0.171875 -0.515625 -0.234375q-0.234375 -0.0625 -0.53125 -0.0625q-0.4375 0 -0.875 0.171875q-0.421875 0.15625 -0.78125 0.5q-0.34375 0.34375 -0.5625 0.890625q-0.203125 0.53125 -0.203125 1.28125l0 4.203125l-1.265625 0l0 -7.9375zm10.882782 10.90625q-0.828125 0 -1.5 -0.140625q-0.671875 -0.125 -1.15625 -0.375q-0.46875 -0.25 -0.71875 -0.640625q-0.25 -0.375 -0.25 -0.890625q0 -0.484375 0.203125 -0.875q0.21875 -0.375 0.546875 -0.625q0.34375 -0.25 0.75 -0.375l0.515625 0.3125q-0.3125 0.1875 -0.515625 0.390625q-0.1875 0.1875 -0.28125 0.4375q-0.078125 0.25 -0.078125 0.59375q0 0.296875 0.171875 0.53125q0.1875 0.234375 0.5 0.390625q0.328125 0.15625 0.78125 0.234375q0.453125 0.09375 1.046875 0.09375q0.796875 0 1.28125 -0.171875q0.5 -0.15625 0.734375 -0.453125q0.25 -0.28125 0.25 -0.640625q0 -0.375 -0.140625 -0.625q-0.125 -0.25 -0.5625 -0.359375q-0.4375 -0.125 -1.3125 -0.125q-0.609375 0 -1.125 -0.046875q-0.5 -0.0625 -0.90625 -0.171875q-0.390625 -0.125 -0.65625 -0.3125q-0.265625 -0.1875 -0.40625 -0.4375q-0.140625 -0.265625 -0.140625 -0.609375q0 -0.453125 0.25 -0.859375q0.25 -0.421875 0.6875 -0.796875l0.59375 0.453125q-0.171875 0.203125 -0.28125 0.359375q-0.109375 0.140625 -0.15625 0.265625q-0.03125 0.125 -0.03125 0.28125q0 0.28125 0.21875 0.453125q0.21875 0.171875 0.75 0.25q0.53125 0.078125 1.453125 0.078125q0.921875 0 1.484375 0.15625q0.578125 0.140625 0.875 0.421875q0.3125 0.265625 0.4375 0.640625q0.125 0.359375 0.125 0.796875q0 0.46875 -0.1875 0.890625q-0.1875 0.421875 -0.59375 0.75q-0.390625 0.34375 -1.046875 0.546875q-0.65625 0.203125 -1.609375 0.203125zm-0.359375 -5.671875q-0.859375 0 -1.484375 -0.375q-0.625 -0.375 -0.96875 -1.0q-0.328125 -0.640625 -0.328125 -1.390625q0 -0.765625 0.328125 -1.390625q0.34375 -0.625 0.96875 -1.0q0.625 -0.375 1.484375 -0.375q0.859375 0 1.46875 0.375q0.625 0.375 0.953125 1.0q0.34375 0.625 0.34375 1.390625q0 0.75 -0.34375 1.390625q-0.328125 0.625 -0.953125 1.0q-0.609375 0.375 -1.46875 0.375zm0 -1.03125q0.5 0 0.890625 -0.234375q0.390625 -0.234375 0.609375 -0.625q0.234375 -0.40625 0.234375 -0.875q0 -0.484375 -0.234375 -0.875q-0.21875 -0.390625 -0.609375 -0.625q-0.390625 -0.234375 -0.890625 -0.234375q-0.515625 0 -0.90625 0.234375q-0.375 0.234375 -0.609375 0.625q-0.21875 0.390625 -0.21875 0.875q0 0.46875 0.21875 0.875q0.234375 0.390625 0.609375 0.625q0.390625 0.234375 0.90625 0.234375zm2.296875 -2.921875l-0.484375 -0.5625q0.5 -0.515625 1.046875 -0.734375q0.546875 -0.234375 1.296875 -0.1875l0.15625 1.015625q-0.578125 -0.046875 -1.078125 0.046875q-0.5 0.078125 -0.9375 0.421875zm4.6483765 9.65625q-0.5625 0 -1.015625 -0.171875q-0.453125 -0.171875 -0.8125 -0.5l0.546875 -0.859375l0.09375 -0.15625l0.109375 0.078125q0.03125 0.140625 0.109375 0.234375q0.09375 0.09375 0.34375 0.25q0.15625 0.046875 0.328125 0.078125q0.171875 0.03125 0.359375 0.03125q0.46875 0 0.78125 -0.234375q0.328125 -0.21875 0.5625 -0.6875q0.25 -0.46875 0.484375 -1.1875l1.5 -4.65625q0.265625 -0.796875 0.5 -1.578125q0.25 -0.78125 0.328125 -1.578125l1.25 0q-0.109375 0.796875 -0.375 1.609375q-0.265625 0.8125 -0.5625 1.640625l-1.96875 5.578125q-0.421875 1.15625 -1.078125 1.625q-0.640625 0.484375 -1.484375 0.484375l0 0zm-1.40625 -10.9375l1.296875 0l2.5625 6.609375l-0.546875 1.53125l-3.3125 -8.140625z" fill-rule="nonzero"/><path fill="#000000" d="m120.40902 275.05725l0 -1.015625l2.125 0l0 -8.75l-2.0 0l0 -1.03125l5.34375 0l0 1.03125l-2.125 0l0 8.765625l2.234375 0l0 1.0l-5.578125 0zm8.507759 0l0 -7.921875l1.203125 0l0 1.40625q0.3125 -0.484375 0.734375 -0.84375q0.421875 -0.359375 0.921875 -0.546875q0.5 -0.203125 1.03125 -0.203125q0.671875 0 1.1875 0.328125q0.515625 0.328125 0.828125 1.0625q0.3125 0.71875 0.3125 1.921875l0 4.796875l-1.21875 0l0 -4.765625q0 -0.828125 -0.1875 -1.3125q-0.1875 -0.5 -0.515625 -0.71875q-0.328125 -0.21875 -0.75 -0.21875q-0.390625 0 -0.796875 0.171875q-0.40625 0.171875 -0.765625 0.5q-0.34375 0.3125 -0.5625 0.765625q-0.21875 0.453125 -0.21875 1.015625l0 4.5625l-1.203125 0zm10.226517 -6.9375l-1.71875 0l0 -0.984375l1.71875 0l0 -0.65625q0 -1.0625 0.359375 -1.734375q0.375 -0.671875 1.03125 -0.984375q0.671875 -0.328125 1.515625 -0.328125q0.75 0 1.390625 0.265625q0.65625 0.265625 1.09375 0.828125l-0.671875 0.921875l-0.09375 0.125l-0.109375 -0.0625q-0.015625 -0.140625 -0.078125 -0.28125q-0.046875 -0.140625 -0.234375 -0.34375q-0.28125 -0.25 -0.5625 -0.34375q-0.265625 -0.109375 -0.703125 -0.109375q-0.5 0 -0.90625 0.203125q-0.390625 0.203125 -0.625 0.640625q-0.21875 0.4375 -0.21875 1.203125l0 0.65625l2.609375 0l0 0.984375l-2.609375 0l0 6.9375l-1.1875 0l0 -6.9375zm10.179642 7.078125q-1.078125 0 -1.90625 -0.53125q-0.8125 -0.53125 -1.28125 -1.453125q-0.46875 -0.921875 -0.46875 -2.125q0 -1.21875 0.46875 -2.140625q0.46875 -0.921875 1.28125 -1.453125q0.828125 -0.53125 1.90625 -0.53125q1.078125 0 1.890625 0.53125q0.828125 0.53125 1.296875 1.453125q0.46875 0.921875 0.46875 2.140625q0 1.203125 -0.46875 2.125q-0.46875 0.921875 -1.296875 1.453125q-0.8125 0.53125 -1.890625 0.53125zm0 -1.046875q0.703125 0 1.21875 -0.390625q0.515625 -0.40625 0.8125 -1.09375q0.3125 -0.6875 0.3125 -1.59375q0 -0.90625 -0.3125 -1.59375q-0.296875 -0.6875 -0.8125 -1.078125q-0.515625 -0.390625 -1.21875 -0.390625q-0.671875 0 -1.203125 0.390625q-0.53125 0.390625 -0.828125 1.078125q-0.296875 0.6875 -0.296875 1.59375q0 0.90625 0.296875 1.59375q0.296875 0.6875 0.828125 1.09375q0.53125 0.390625 1.203125 0.390625zm6.3983917 -7.015625l1.296875 0l-0.046875 2.3125l-0.15625 -0.265625q0.09375 -0.53125 0.359375 -0.953125q0.265625 -0.421875 0.625 -0.703125q0.359375 -0.28125 0.796875 -0.421875q0.4375 -0.15625 0.90625 -0.15625q0.625 0 1.140625 0.21875q0.53125 0.21875 0.953125 0.640625l-0.5625 0.984375l-0.0625 0.15625l-0.125 -0.078125q-0.03125 -0.140625 -0.109375 -0.25q-0.0625 -0.125 -0.28125 -0.296875q-0.28125 -0.171875 -0.515625 -0.234375q-0.234375 -0.0625 -0.53125 -0.0625q-0.4375 0 -0.875 0.171875q-0.421875 0.15625 -0.78125 0.5q-0.34375 0.34375 -0.5625 0.890625q-0.203125 0.53125 -0.203125 1.28125l0 4.203125l-1.265625 0l0 -7.9375zm7.2577667 7.921875l0 -7.921875l1.140625 0l0 0.78125q0.203125 -0.296875 0.453125 -0.5q0.25 -0.21875 0.546875 -0.34375q0.3125 -0.125 0.609375 -0.125q0.359375 0 0.640625 0.15625q0.296875 0.140625 0.5 0.40625q0.203125 0.25 0.265625 0.59375q0.15625 -0.34375 0.421875 -0.59375q0.28125 -0.265625 0.625 -0.40625q0.359375 -0.15625 0.75 -0.15625q0.390625 0 0.6875 0.15625q0.296875 0.15625 0.484375 0.421875q0.1875 0.265625 0.265625 0.640625q0.09375 0.375 0.078125 0.8125l0 6.078125l-1.140625 0l0 -5.609375q0 -0.734375 -0.09375 -1.0625q-0.09375 -0.328125 -0.265625 -0.421875q-0.171875 -0.09375 -0.390625 -0.09375q-0.328125 0 -0.609375 0.3125q-0.28125 0.296875 -0.46875 0.75q-0.1875 0.4375 -0.1875 0.890625l0 5.234375l-1.15625 0l0 -5.515625q0 -0.984375 -0.1875 -1.3125q-0.171875 -0.328125 -0.671875 -0.328125q-0.203125 0 -0.40625 0.140625q-0.1875 0.125 -0.359375 0.359375q-0.171875 0.234375 -0.28125 0.578125q-0.109375 0.34375 -0.109375 0.796875l0 5.28125l-1.140625 0zm11.664017 0.1875q-1.359375 0 -2.09375 -0.609375q-0.71875 -0.625 -0.71875 -1.578125q0 -0.640625 0.3125 -1.140625q0.3125 -0.515625 0.859375 -0.859375q0.546875 -0.359375 1.265625 -0.546875q0.734375 -0.203125 1.546875 -0.203125q0.296875 0 0.59375 0.015625q0.3125 0 0.640625 0.03125q0.34375 0.03125 0.71875 0.078125l0.03125 0.953125q-0.3125 -0.046875 -0.640625 -0.078125q-0.3125 -0.03125 -0.625 -0.046875q-0.3125 -0.015625 -0.609375 -0.015625q-0.625 0 -1.140625 0.109375q-0.515625 0.09375 -0.90625 0.3125q-0.375 0.203125 -0.59375 0.53125q-0.203125 0.328125 -0.203125 0.796875q0 0.359375 0.125 0.609375q0.140625 0.25 0.359375 0.40625q0.234375 0.140625 0.53125 0.21875q0.296875 0.0625 0.671875 0.0625q0.671875 0 1.203125 -0.21875q0.53125 -0.21875 0.890625 -0.625q0.375 -0.421875 0.5625 -1.015625q0.203125 -0.609375 0.203125 -1.390625q0 -1.1875 -0.28125 -1.84375q-0.28125 -0.65625 -0.828125 -0.921875q-0.546875 -0.28125 -1.390625 -0.28125q-0.578125 0 -1.140625 0.21875q-0.546875 0.203125 -0.984375 0.65625l-0.609375 -0.796875q0.546875 -0.546875 1.265625 -0.828125q0.734375 -0.28125 1.5625 -0.28125q0.765625 0 1.40625 0.1875q0.65625 0.1875 1.109375 0.640625q0.453125 0.4375 0.703125 1.1875q0.265625 0.734375 0.265625 1.875l0 4.203125l-1.359375 0l0 -1.21875q-0.21875 0.4375 -0.546875 0.71875q-0.3125 0.28125 -0.6875 0.421875q-0.359375 0.140625 -0.75 0.203125q-0.375 0.0625 -0.71875 0.0625zm10.195267 -0.0625q-0.765625 0 -1.25 -0.265625q-0.484375 -0.265625 -0.75 -0.796875q-0.265625 -0.546875 -0.34375 -1.375q-0.078125 -0.84375 -0.03125 -1.984375l0.203125 -5.65625l1.296875 -0.15625l0.171875 -0.015625l0.015625 0.125q-0.078125 0.125 -0.140625 0.25q-0.0625 0.109375 -0.09375 0.40625l-0.15625 1.96875l0.046875 0.3125l-0.125 2.859375q-0.046875 1.3125 0.078125 2.03125q0.125 0.71875 0.4375 0.984375q0.3125 0.265625 0.828125 0.265625q0.5625 0 1.0 -0.21875q0.453125 -0.234375 0.9375 -0.578125l0.375 0.984375q-0.578125 0.4375 -1.203125 0.65625q-0.625 0.203125 -1.296875 0.203125l0 0zm-3.96875 -8.046875l5.6875 0l0 1.03125l-5.6875 0l0 -1.03125zm9.179642 7.921875l0 -1.0l2.03125 0l0 -5.90625l-1.921875 0l0 -1.015625l3.15625 0l0 6.921875l1.859375 0l0 1.0l-5.125 0zm2.671875 -9.578125q-0.375 0 -0.640625 -0.265625q-0.25 -0.265625 -0.25 -0.625q0 -0.375 0.25 -0.625q0.25 -0.265625 0.640625 -0.265625q0.359375 0 0.625 0.265625q0.265625 0.265625 0.265625 0.625q0 0.359375 -0.265625 0.625q-0.265625 0.265625 -0.625 0.265625zm8.585907 9.71875q-1.078125 0 -1.90625 -0.53125q-0.8125 -0.53125 -1.28125 -1.453125q-0.46875 -0.921875 -0.46875 -2.125q0 -1.21875 0.46875 -2.140625q0.46875 -0.921875 1.28125 -1.453125q0.828125 -0.53125 1.90625 -0.53125q1.078125 0 1.890625 0.53125q0.828125 0.53125 1.296875 1.453125q0.46875 0.921875 0.46875 2.140625q0 1.203125 -0.46875 2.125q-0.46875 0.921875 -1.296875 1.453125q-0.8125 0.53125 -1.890625 0.53125zm0 -1.046875q0.703125 0 1.21875 -0.390625q0.515625 -0.40625 0.8125 -1.09375q0.3125 -0.6875 0.3125 -1.59375q0 -0.90625 -0.3125 -1.59375q-0.296875 -0.6875 -0.8125 -1.078125q-0.515625 -0.390625 -1.21875 -0.390625q-0.671875 0 -1.203125 0.390625q-0.53125 0.390625 -0.828125 1.078125q-0.296875 0.6875 -0.296875 1.59375q0 0.90625 0.296875 1.59375q0.296875 0.6875 0.828125 1.09375q0.53125 0.390625 1.203125 0.390625zm5.5858765 0.90625l0 -7.921875l1.203125 0l0 1.40625q0.3125 -0.484375 0.734375 -0.84375q0.421875 -0.359375 0.921875 -0.546875q0.5 -0.203125 1.03125 -0.203125q0.671875 0 1.1875 0.328125q0.515625 0.328125 0.828125 1.0625q0.3125 0.71875 0.3125 1.921875l0 4.796875l-1.21875 0l0 -4.765625q0 -0.828125 -0.1875 -1.3125q-0.1875 -0.5 -0.515625 -0.71875q-0.328125 -0.21875 -0.75 -0.21875q-0.390625 0 -0.796875 0.171875q-0.40625 0.171875 -0.765625 0.5q-0.34375 0.3125 -0.5625 0.765625q-0.21875 0.453125 -0.21875 1.015625l0 4.5625l-1.203125 0z" fill-rule="nonzero"/><path fill="#000000" d="m94.86621 292.901l-3.921875 0l0.25 -0.9375l3.390625 0l0.28125 0.9375zm-1.875 -5.0625l-2.84375 8.21875l-1.1875 0l3.984375 -10.984375l0.140625 0l3.984375 10.984375l-1.25 0l-2.828125 -8.21875zm8.414017 8.390625q-0.609375 0 -1.203125 -0.25q-0.578125 -0.265625 -1.0625 -0.78125q-0.46875 -0.53125 -0.75 -1.328125q-0.265625 -0.796875 -0.265625 -1.84375q0 -1.09375 0.296875 -1.859375q0.296875 -0.78125 0.78125 -1.265625q0.484375 -0.5 1.0625 -0.734375q0.59375 -0.234375 1.203125 -0.234375q0.546875 0 0.984375 0.171875q0.453125 0.171875 0.78125 0.484375q0.34375 0.296875 0.53125 0.703125l0 -4.75l1.15625 0l0.171875 0l0 0.109375q-0.109375 0.109375 -0.140625 0.234375q-0.015625 0.109375 -0.015625 0.40625l0.015625 9.53125q0 0.3125 0.015625 0.625q0.03125 0.296875 0.15625 0.609375l-1.234375 0q-0.078125 -0.203125 -0.125 -0.40625q-0.03125 -0.21875 -0.046875 -0.40625q0 -0.203125 0 -0.421875q-0.234375 0.421875 -0.59375 0.75q-0.34375 0.3125 -0.78125 0.484375q-0.421875 0.171875 -0.9375 0.171875l0 0zm0.1875 -1.09375q0.5625 0 0.953125 -0.234375q0.40625 -0.234375 0.640625 -0.65625q0.25 -0.421875 0.359375 -0.984375q0.125 -0.5625 0.125 -1.203125q0 -0.890625 -0.234375 -1.59375q-0.21875 -0.703125 -0.703125 -1.109375q-0.484375 -0.40625 -1.25 -0.40625q-0.515625 0 -0.921875 0.203125q-0.40625 0.203125 -0.6875 0.59375q-0.265625 0.375 -0.40625 0.90625q-0.125 0.515625 -0.125 1.171875q0 1.0 0.25 1.75q0.265625 0.734375 0.765625 1.15625q0.5 0.40625 1.234375 0.40625l0 0zm5.0702667 0.921875l0 -7.921875l1.140625 0l0 0.78125q0.203125 -0.296875 0.453125 -0.5q0.25 -0.21875 0.546875 -0.34375q0.3125 -0.125 0.609375 -0.125q0.359375 0 0.640625 0.15625q0.296875 0.140625 0.5 0.40625q0.203125 0.25 0.265625 0.59375q0.15625 -0.34375 0.421875 -0.59375q0.28125 -0.265625 0.625 -0.40625q0.359375 -0.15625 0.75 -0.15625q0.390625 0 0.6875 0.15625q0.296875 0.15625 0.484375 0.421875q0.1875 0.265625 0.265625 0.640625q0.09375 0.375 0.078125 0.8125l0 6.078125l-1.140625 0l0 -5.609375q0 -0.734375 -0.09375 -1.0625q-0.09375 -0.328125 -0.265625 -0.421875q-0.171875 -0.09375 -0.390625 -0.09375q-0.328125 0 -0.609375 0.3125q-0.28125 0.296875 -0.46875 0.75q-0.1875 0.4375 -0.1875 0.890625l0 5.234375l-1.15625 0l0 -5.515625q0 -0.984375 -0.1875 -1.3125q-0.171875 -0.328125 -0.671875 -0.328125q-0.203125 0 -0.40625 0.140625q-0.1875 0.125 -0.359375 0.359375q-0.171875 0.234375 -0.28125 0.578125q-0.109375 0.34375 -0.109375 0.796875l0 5.28125l-1.140625 0zm9.742142 0l0 -1.0l2.03125 0l0 -5.90625l-1.921875 0l0 -1.015625l3.15625 0l0 6.921875l1.859375 0l0 1.0l-5.125 0zm2.671875 -9.578125q-0.375 0 -0.640625 -0.265625q-0.25 -0.265625 -0.25 -0.625q0 -0.375 0.25 -0.625q0.25 -0.265625 0.640625 -0.265625q0.359375 0 0.625 0.265625q0.265625 0.265625 0.265625 0.625q0 0.359375 -0.265625 0.625q-0.265625 0.265625 -0.625 0.265625zm5.5077667 9.578125l0 -7.921875l1.203125 0l0 1.40625q0.3125 -0.484375 0.734375 -0.84375q0.421875 -0.359375 0.921875 -0.546875q0.5 -0.203125 1.03125 -0.203125q0.671875 0 1.1875 0.328125q0.515625 0.328125 0.828125 1.0625q0.3125 0.71875 0.3125 1.921875l0 4.796875l-1.21875 0l0 -4.765625q0 -0.828125 -0.1875 -1.3125q-0.1875 -0.5 -0.515625 -0.71875q-0.328125 -0.21875 -0.75 -0.21875q-0.390625 0 -0.796875 0.171875q-0.40625 0.171875 -0.765625 0.5q-0.34375 0.3125 -0.5625 0.765625q-0.21875 0.453125 -0.21875 1.015625l0 4.5625l-1.203125 0zm9.148392 0l0 -1.0l2.03125 0l0 -5.90625l-1.921875 0l0 -1.015625l3.15625 0l0 6.921875l1.859375 0l0 1.0l-5.125 0zm2.671875 -9.578125q-0.375 0 -0.640625 -0.265625q-0.25 -0.265625 -0.25 -0.625q0 -0.375 0.25 -0.625q0.25 -0.265625 0.640625 -0.265625q0.359375 0 0.625 0.265625q0.265625 0.265625 0.265625 0.625q0 0.359375 -0.265625 0.625q-0.265625 0.265625 -0.625 0.265625zm8.601517 9.75q-0.65625 0 -1.25 -0.140625q-0.59375 -0.140625 -1.125 -0.40625q-0.53125 -0.28125 -0.984375 -0.703125l0.703125 -1.171875l0.09375 -0.15625l0.109375 0.0625q0.03125 0.140625 0.078125 0.296875q0.046875 0.140625 0.234375 0.34375q0.359375 0.375 0.875 0.609375q0.515625 0.234375 1.3125 0.234375q0.640625 0 1.078125 -0.15625q0.4375 -0.15625 0.671875 -0.4375q0.25 -0.296875 0.25 -0.671875q0 -0.265625 -0.109375 -0.46875q-0.09375 -0.203125 -0.328125 -0.375q-0.234375 -0.171875 -0.625 -0.34375q-0.375 -0.171875 -0.921875 -0.34375q-0.90625 -0.265625 -1.578125 -0.609375q-0.671875 -0.34375 -1.046875 -0.796875q-0.359375 -0.46875 -0.359375 -1.046875q0 -0.609375 0.328125 -1.046875q0.328125 -0.453125 0.96875 -0.703125q0.65625 -0.25 1.609375 -0.25q0.5625 0 1.0 0.078125q0.453125 0.078125 0.828125 0.234375q0.390625 0.15625 0.703125 0.390625q0.328125 0.234375 0.625 0.546875l-0.703125 0.859375l-0.125 0.140625l-0.09375 -0.078125q-0.015625 -0.140625 -0.078125 -0.265625q-0.0625 -0.140625 -0.25 -0.328125q-0.390625 -0.3125 -0.90625 -0.46875q-0.5 -0.171875 -0.96875 -0.171875q-0.6875 0 -1.1875 0.25q-0.5 0.234375 -0.5 0.734375q0 0.265625 0.171875 0.515625q0.1875 0.25 0.671875 0.5q0.484375 0.25 1.390625 0.515625q0.984375 0.3125 1.578125 0.640625q0.609375 0.3125 0.875 0.734375q0.265625 0.40625 0.265625 0.984375q0 0.65625 -0.359375 1.234375q-0.359375 0.5625 -1.09375 0.90625q-0.71875 0.328125 -1.828125 0.328125l0 0zm9.507767 -0.046875q-0.765625 0 -1.25 -0.265625q-0.484375 -0.265625 -0.75 -0.796875q-0.265625 -0.546875 -0.34375 -1.375q-0.078125 -0.84375 -0.03125 -1.984375l0.203125 -5.65625l1.296875 -0.15625l0.171875 -0.015625l0.015625 0.125q-0.078125 0.125 -0.140625 0.25q-0.0625 0.109375 -0.09375 0.40625l-0.15625 1.96875l0.046875 0.3125l-0.125 2.859375q-0.046875 1.3125 0.078125 2.03125q0.125 0.71875 0.4375 0.984375q0.3125 0.265625 0.828125 0.265625q0.5625 0 1.0 -0.21875q0.453125 -0.234375 0.9375 -0.578125l0.375 0.984375q-0.578125 0.4375 -1.203125 0.65625q-0.625 0.203125 -1.296875 0.203125l0 0zm-3.96875 -8.046875l5.6875 0l0 1.03125l-5.6875 0l0 -1.03125zm9.507767 0l1.296875 0l-0.046875 2.3125l-0.15625 -0.265625q0.09375 -0.53125 0.359375 -0.953125q0.265625 -0.421875 0.625 -0.703125q0.359375 -0.28125 0.796875 -0.421875q0.4375 -0.15625 0.90625 -0.15625q0.625 0 1.140625 0.21875q0.53125 0.21875 0.953125 0.640625l-0.5625 0.984375l-0.0625 0.15625l-0.125 -0.078125q-0.03125 -0.140625 -0.109375 -0.25q-0.0625 -0.125 -0.28125 -0.296875q-0.28125 -0.171875 -0.515625 -0.234375q-0.234375 -0.0625 -0.53125 -0.0625q-0.4375 0 -0.875 0.171875q-0.421875 0.15625 -0.78125 0.5q-0.34375 0.34375 -0.5625 0.890625q-0.203125 0.53125 -0.203125 1.28125l0 4.203125l-1.265625 0l0 -7.9375zm10.257767 8.109375q-1.359375 0 -2.09375 -0.609375q-0.71875 -0.625 -0.71875 -1.578125q0 -0.640625 0.3125 -1.140625q0.3125 -0.515625 0.859375 -0.859375q0.546875 -0.359375 1.265625 -0.546875q0.734375 -0.203125 1.546875 -0.203125q0.296875 0 0.59375 0.015625q0.3125 0 0.640625 0.03125q0.34375 0.03125 0.71875 0.078125l0.03125 0.953125q-0.3125 -0.046875 -0.640625 -0.078125q-0.3125 -0.03125 -0.625 -0.046875q-0.3125 -0.015625 -0.609375 -0.015625q-0.625 0 -1.140625 0.109375q-0.515625 0.09375 -0.90625 0.3125q-0.375 0.203125 -0.59375 0.53125q-0.203125 0.328125 -0.203125 0.796875q0 0.359375 0.125 0.609375q0.140625 0.25 0.359375 0.40625q0.234375 0.140625 0.53125 0.21875q0.296875 0.0625 0.671875 0.0625q0.671875 0 1.203125 -0.21875q0.53125 -0.21875 0.890625 -0.625q0.375 -0.421875 0.5625 -1.015625q0.203125 -0.609375 0.203125 -1.390625q0 -1.1875 -0.28125 -1.84375q-0.28125 -0.65625 -0.828125 -0.921875q-0.546875 -0.28125 -1.390625 -0.28125q-0.578125 0 -1.140625 0.21875q-0.546875 0.203125 -0.984375 0.65625l-0.609375 -0.796875q0.546875 -0.546875 1.265625 -0.828125q0.734375 -0.28125 1.5625 -0.28125q0.765625 0 1.40625 0.1875q0.65625 0.1875 1.109375 0.640625q0.453125 0.4375 0.703125 1.1875q0.265625 0.734375 0.265625 1.875l0 4.203125l-1.359375 0l0 -1.21875q-0.21875 0.4375 -0.546875 0.71875q-0.3125 0.28125 -0.6875 0.421875q-0.359375 0.140625 -0.75 0.203125q-0.375 0.0625 -0.71875 0.0625zm10.195267 -0.0625q-0.765625 0 -1.25 -0.265625q-0.484375 -0.265625 -0.75 -0.796875q-0.265625 -0.546875 -0.34375 -1.375q-0.078125 -0.84375 -0.03125 -1.984375l0.203125 -5.65625l1.296875 -0.15625l0.171875 -0.015625l0.015625 0.125q-0.078125 0.125 -0.140625 0.25q-0.0625 0.109375 -0.09375 0.40625l-0.15625 1.96875l0.046875 0.3125l-0.125 2.859375q-0.046875 1.3125 0.078125 2.03125q0.125 0.71875 0.4375 0.984375q0.3125 0.265625 0.828125 0.265625q0.5625 0 1.0 -0.21875q0.453125 -0.234375 0.9375 -0.578125l0.375 0.984375q-0.578125 0.4375 -1.203125 0.65625q-0.625 0.203125 -1.296875 0.203125l0 0zm-3.96875 -8.046875l5.6875 0l0 1.03125l-5.6875 0l0 -1.03125zm9.179642 7.921875l0 -1.0l2.03125 0l0 -5.90625l-1.921875 0l0 -1.015625l3.15625 0l0 6.921875l1.859375 0l0 1.0l-5.125 0zm2.671875 -9.578125q-0.375 0 -0.640625 -0.265625q-0.25 -0.265625 -0.25 -0.625q0 -0.375 0.25 -0.625q0.25 -0.265625 0.640625 -0.265625q0.359375 0 0.625 0.265625q0.265625 0.265625 0.265625 0.625q0 0.359375 -0.265625 0.625q-0.265625 0.265625 -0.625 0.265625zm8.585892 9.71875q-1.078125 0 -1.90625 -0.53125q-0.8125 -0.53125 -1.28125 -1.453125q-0.46875 -0.921875 -0.46875 -2.125q0 -1.21875 0.46875 -2.140625q0.46875 -0.921875 1.28125 -1.453125q0.828125 -0.53125 1.90625 -0.53125q1.078125 0 1.890625 0.53125q0.828125 0.53125 1.296875 1.453125q0.46875 0.921875 0.46875 2.140625q0 1.203125 -0.46875 2.125q-0.46875 0.921875 -1.296875 1.453125q-0.8125 0.53125 -1.890625 0.53125zm0 -1.046875q0.703125 0 1.21875 -0.390625q0.515625 -0.40625 0.8125 -1.09375q0.3125 -0.6875 0.3125 -1.59375q0 -0.90625 -0.3125 -1.59375q-0.296875 -0.6875 -0.8125 -1.078125q-0.515625 -0.390625 -1.21875 -0.390625q-0.671875 0 -1.203125 0.390625q-0.53125 0.390625 -0.828125 1.078125q-0.296875 0.6875 -0.296875 1.59375q0 0.90625 0.296875 1.59375q0.296875 0.6875 0.828125 1.09375q0.53125 0.390625 1.203125 0.390625zm5.5858917 0.90625l0 -7.921875l1.203125 0l0 1.40625q0.3125 -0.484375 0.734375 -0.84375q0.421875 -0.359375 0.921875 -0.546875q0.5 -0.203125 1.03125 -0.203125q0.671875 0 1.1875 0.328125q0.515625 0.328125 0.828125 1.0625q0.3125 0.71875 0.3125 1.921875l0 4.796875l-1.21875 0l0 -4.765625q0 -0.828125 -0.1875 -1.3125q-0.1875 -0.5 -0.515625 -0.71875q-0.328125 -0.21875 -0.75 -0.21875q-0.390625 0 -0.796875 0.171875q-0.40625 0.171875 -0.765625 0.5q-0.34375 0.3125 -0.5625 0.765625q-0.21875 0.453125 -0.21875 1.015625l0 4.5625l-1.203125 0zm22.265533 -3.15625l-3.921875 0l0.25 -0.9375l3.390625 0l0.28125 0.9375zm-1.875 -5.0625l-2.84375 8.21875l-1.1875 0l3.984375 -10.984375l0.140625 0l3.984375 10.984375l-1.25 0l-2.828125 -8.21875zm5.3671417 8.21875l0 -10.796875l3.46875 0q1.21875 0 1.953125 0.421875q0.75 0.40625 1.109375 1.09375q0.359375 0.6875 0.359375 1.53125q0 0.625 -0.203125 1.171875q-0.1875 0.53125 -0.59375 0.953125q-0.40625 0.40625 -1.03125 0.640625q-0.625 0.21875 -1.5 0.21875l-2.3125 0l0 4.765625l-1.25 0zm1.25 -5.84375l2.171875 0q0.796875 0 1.28125 -0.234375q0.484375 -0.234375 0.703125 -0.65625q0.234375 -0.421875 0.234375 -0.984375q0 -0.53125 -0.234375 -0.953125q-0.21875 -0.4375 -0.703125 -0.703125q-0.484375 -0.28125 -1.265625 -0.28125l-2.1875 0l0 3.8125zm7.8046417 5.84375l0 -1.015625l2.125 0l0 -8.75l-2.0 0l0 -1.03125l5.34375 0l0 1.03125l-2.125 0l0 8.765625l2.234375 0l0 1.0l-5.578125 0z" fill-rule="nonzero"/><path fill="#f4cccc" d="m688.888 393.45114l208.91339 0l0 97.41733l-208.91339 0z" fill-rule="evenodd"/><path fill="#000000" d="m780.3604 448.4873q-1.734375 0 -2.609375 -1.03125q-0.875 -1.03125 -0.875 -2.875l0 -7.078125l1.1875 0l0.171875 0l0 0.125q-0.109375 0.109375 -0.140625 0.234375q-0.015625 0.109375 -0.015625 0.40625l0 6.328125q0 1.3125 0.5 2.09375q0.515625 0.78125 1.796875 0.78125q1.3125 0 1.828125 -0.78125q0.515625 -0.78125 0.515625 -2.15625l0 -7.03125l1.15625 0l0 7.015625q0 1.375 -0.4375 2.25q-0.421875 0.875 -1.21875 1.296875q-0.78125 0.421875 -1.859375 0.421875l0 0zm8.664001 -0.015625q-0.65625 0 -1.25 -0.140625q-0.59375 -0.140625 -1.125 -0.40625q-0.53125 -0.28125 -0.984375 -0.703125l0.703125 -1.171875l0.09375 -0.15625l0.109375 0.0625q0.03125 0.140625 0.078125 0.296875q0.046875 0.140625 0.234375 0.34375q0.359375 0.375 0.875 0.609375q0.515625 0.234375 1.3125 0.234375q0.640625 0 1.078125 -0.15625q0.4375 -0.15625 0.671875 -0.4375q0.25 -0.296875 0.25 -0.671875q0 -0.265625 -0.109375 -0.46875q-0.09375 -0.203125 -0.328125 -0.375q-0.234375 -0.171875 -0.625 -0.34375q-0.375 -0.171875 -0.921875 -0.34375q-0.90625 -0.265625 -1.578125 -0.609375q-0.671875 -0.34375 -1.046875 -0.796875q-0.359375 -0.46875 -0.359375 -1.046875q0 -0.609375 0.328125 -1.046875q0.328125 -0.453125 0.96875 -0.703125q0.65625 -0.25 1.609375 -0.25q0.5625 0 1.0 0.078125q0.453125 0.078125 0.828125 0.234375q0.390625 0.15625 0.703125 0.390625q0.328125 0.234375 0.625 0.546875l-0.703125 0.859375l-0.125 0.140625l-0.09375 -0.078125q-0.015625 -0.140625 -0.078125 -0.265625q-0.0625 -0.140625 -0.25 -0.328125q-0.390625 -0.3125 -0.90625 -0.46875q-0.5 -0.171875 -0.96875 -0.171875q-0.6875 0 -1.1875 0.25q-0.5 0.234375 -0.5 0.734375q0 0.265625 0.171875 0.515625q0.1875 0.25 0.671875 0.5q0.484375 0.25 1.390625 0.515625q0.984375 0.3125 1.578125 0.640625q0.609375 0.3125 0.875 0.734375q0.265625 0.40625 0.265625 0.984375q0 0.65625 -0.359375 1.234375q-0.359375 0.5625 -1.09375 0.90625q-0.71875 0.328125 -1.828125 0.328125l0 0zm9.039001 0q-0.875 0 -1.59375 -0.265625q-0.703125 -0.265625 -1.21875 -0.78125q-0.5 -0.53125 -0.78125 -1.296875q-0.28125 -0.78125 -0.28125 -1.765625q0 -1.0 0.28125 -1.78125q0.296875 -0.78125 0.78125 -1.3125q0.5 -0.53125 1.171875 -0.796875q0.671875 -0.28125 1.40625 -0.28125q0.671875 0 1.265625 0.234375q0.59375 0.21875 1.015625 0.6875q0.4375 0.453125 0.6875 1.171875q0.265625 0.703125 0.265625 1.671875q0 0.140625 -0.015625 0.28125q-0.015625 0.140625 -0.03125 0.28125l-5.625 0q0.03125 0.765625 0.25 1.328125q0.234375 0.5625 0.59375 0.921875q0.359375 0.359375 0.828125 0.53125q0.484375 0.171875 1.03125 0.171875q0.40625 0 0.765625 -0.09375q0.375 -0.09375 0.6875 -0.296875q0.328125 -0.203125 0.59375 -0.5l0.6875 0.671875q-0.328125 0.40625 -0.75 0.6875q-0.421875 0.265625 -0.9375 0.390625q-0.5 0.140625 -1.078125 0.140625zm-2.625 -4.921875l4.359375 0q0 -0.546875 -0.15625 -0.984375q-0.140625 -0.453125 -0.421875 -0.765625q-0.265625 -0.328125 -0.640625 -0.484375q-0.359375 -0.171875 -0.828125 -0.171875q-0.421875 0 -0.796875 0.140625q-0.375 0.140625 -0.6875 0.453125q-0.3125 0.296875 -0.53125 0.75q-0.203125 0.4375 -0.296875 1.0625zm8.6328125 -3.171875l1.296875 0l-0.046875 2.3125l-0.15625 -0.265625q0.09375 -0.53125 0.359375 -0.953125q0.265625 -0.421875 0.625 -0.703125q0.359375 -0.28125 0.796875 -0.421875q0.4375 -0.15625 0.90625 -0.15625q0.625 0 1.140625 0.21875q0.53125 0.21875 0.953125 0.640625l-0.5625 0.984375l-0.0625 0.15625l-0.125 -0.078125q-0.03125 -0.140625 -0.109375 -0.25q-0.0625 -0.125 -0.28125 -0.296875q-0.28125 -0.171875 -0.515625 -0.234375q-0.234375 -0.0625 -0.53125 -0.0625q-0.4375 0 -0.875 0.171875q-0.421875 0.15625 -0.78125 0.5q-0.34375 0.34375 -0.5625 0.890625q-0.203125 0.53125 -0.203125 1.28125l0 4.203125l-1.265625 0l0 -7.9375z" fill-rule="nonzero"/><path fill="#000000" fill-opacity="0.0" d="m271.12973 97.84121l104.409454 0" fill-rule="evenodd"/><path stroke="#000000" stroke-width="1.0" stroke-linejoin="round" stroke-linecap="butt" d="m271.12973 97.84121l98.409424 0" fill-rule="evenodd"/><path fill="#000000" stroke="#000000" stroke-width="1.0" stroke-linecap="butt" d="m369.53915 99.49294l4.5381165 -1.6517334l-4.5381165 -1.6517334z" fill-rule="evenodd"/><path fill="#000000" fill-opacity="0.0" d="m479.99976 146.54987l0 73.6693" fill-rule="evenodd"/><path stroke="#000000" stroke-width="1.0" stroke-linejoin="round" stroke-linecap="butt" d="m479.99976 146.54987l0 67.6693" fill-rule="evenodd"/><path fill="#000000" stroke="#000000" stroke-width="1.0" stroke-linecap="butt" d="m478.34802 214.21916l1.6517334 4.538101l1.6517334 -4.538101z" fill-rule="evenodd"/><path fill="#000000" fill-opacity="0.0" d="m271.11154 268.91724l104.44095 0" fill-rule="evenodd"/><path stroke="#000000" stroke-width="1.0" stroke-linejoin="round" stroke-linecap="butt" d="m271.11154 268.91724l98.44095 0" fill-rule="evenodd"/><path fill="#000000" stroke="#000000" stroke-width="1.0" stroke-linecap="butt" d="m369.5525 270.56897l4.538086 -1.6517334l-4.538086 -1.6517334z" fill-rule="evenodd"/><path fill="#000000" fill-opacity="0.0" d="m584.4565 268.91724l104.44092 0" fill-rule="evenodd"/><path stroke="#000000" stroke-width="1.0" stroke-linejoin="round" stroke-linecap="butt" d="m584.4564 268.91724l98.44098 0" fill-rule="evenodd"/><path fill="#000000" stroke="#000000" stroke-width="1.0" stroke-linecap="butt" d="m682.8974 270.56897l4.538086 -1.6517334l-4.538086 -1.6517334z" fill-rule="evenodd"/><path fill="#000000" fill-opacity="0.0" d="m793.34467 317.62592l0 75.811005" fill-rule="evenodd"/><path stroke="#000000" stroke-width="1.0" stroke-linejoin="round" stroke-linecap="butt" d="m793.34467 317.62592l0 69.811005" fill-rule="evenodd"/><path fill="#000000" stroke="#000000" stroke-width="1.0" stroke-linecap="butt" d="m791.69293 387.43692l1.6517334 4.5381165l1.6517334 -4.5381165z" fill-rule="evenodd"/></g></svg>